<svg width="44" height="44" viewBox="0 0 44 44" fill="none" xmlns="http://www.w3.org/2000/svg">
<path d="M6.96875 29.5076L14.0313 36.6326L16.8438 34.1326L9.46875 26.6951L6.96875 29.5076Z" fill="#EEECDE"/>
<path d="M40.5313 3.00763C40.5313 3.00763 32.1563 2.57013 26.4063 8.32013C24.1563 10.5701 20.5938 14.3826 17.1563 18.1951H9.46875L4.46875 23.1951L11.3438 24.6326L11.0938 24.8826L18.6563 32.4451L18.9063 32.1951L20.3438 39.0701L25.2813 34.1326V26.4451C29.0938 23.0076 32.9063 19.4451 35.2188 17.1326C40.9688 11.3826 40.5313 3.00763 40.5313 3.00763ZM30.7813 16.2576C30.4301 16.6034 29.9846 16.8377 29.5007 16.9311C29.0168 17.0245 28.5161 16.9727 28.0615 16.7824C27.6069 16.5921 27.2188 16.2716 26.9457 15.8613C26.6727 15.451 26.5271 14.9692 26.5271 14.4764C26.5271 13.9836 26.6727 13.5017 26.9457 13.0914C27.2188 12.6811 27.6069 12.3607 28.0615 12.1704C28.5161 11.98 29.0168 11.9283 29.5007 12.0217C29.9846 12.115 30.4301 12.3493 30.7813 12.6951C31.0175 12.9278 31.2051 13.205 31.3331 13.5108C31.4611 13.8166 31.5271 14.1449 31.5271 14.4764C31.5271 14.8079 31.4611 15.1361 31.3331 15.4419C31.2051 15.7477 31.0175 16.025 30.7813 16.2576Z" fill="#EEECDE"/>
<path d="M3.03491 40.5076C4.52598 40.6245 6.02254 40.3653 7.38747 39.7538C8.7524 39.1423 9.94205 38.1981 10.8474 37.0076L6.53491 32.6326C5.3306 33.5398 4.3773 34.7389 3.76493 36.1167C3.15255 37.4946 2.90131 39.0057 3.03491 40.5076Z" fill="#EEECDE"/>
</svg>
