<svg width="44" height="44" viewBox="0 0 45 44" fill="none" xmlns="http://www.w3.org/2000/svg">
<path d="M39.75 13.1875H30.5625V10.5625C30.5604 8.82266 29.8683 7.15467 28.6381 5.92441C27.4078 4.69416 25.7398 4.00208 24 4H21.375C19.6352 4.00208 17.9672 4.69416 16.7369 5.92441C15.5067 7.15467 14.8146 8.82266 14.8125 10.5625V13.1875H5.625C4.92881 13.1875 4.26113 13.4641 3.76884 13.9563C3.27656 14.4486 3 15.1163 3 15.8125V30.25H17.4375V25H27.9375V30.25H42.375V15.8125C42.375 15.1163 42.0984 14.4486 41.6062 13.9563C41.1139 13.4641 40.4462 13.1875 39.75 13.1875ZM17.4375 13.1875V10.5625C17.4387 9.51858 17.8539 8.51777 18.5921 7.77961C19.3303 7.04145 20.3311 6.62622 21.375 6.625H24C25.0439 6.62622 26.0447 7.04145 26.7829 7.77961C27.5211 8.51777 27.9363 9.51858 27.9375 10.5625V13.1875H17.4375Z" fill="#EEECDE"/>
<path d="M27.9388 35.4995H17.4388V32.8745H4.3125V40.7489H41.0625V32.8745H27.9388V35.4995Z" fill="#EEECDE"/>
</svg>
