<svg width="44" height="44" viewBox="0 0 45 44" fill="none" xmlns="http://www.w3.org/2000/svg">
<path d="M35.4825 9.93738C35.2744 9.6817 34.9738 9.51855 34.6461 9.48344C34.3183 9.44832 33.99 9.54408 33.7325 9.74988C31.7984 11.2355 29.4211 12.028 26.9825 11.9999C26.7862 12.3983 26.7056 12.8437 26.7498 13.2856C26.794 13.7276 26.9612 14.1482 27.2325 14.4999C30.1567 14.4778 32.9915 13.4889 35.295 11.6874C35.5507 11.4793 35.7138 11.1787 35.7489 10.851C35.784 10.5232 35.6883 10.1949 35.4825 9.93738Z" fill="#EEECDE"/>
<path d="M30.7949 5.8125C27.1074 5.8125 26.8574 3.25 24.5449 3.25C22.2324 3.25 21.8574 5.75 18.2949 5.75C15.7949 5.75 10.7949 2.25 10.7949 4.5C10.7949 6.75 14.7324 10 16.9199 12H26.9824C30.0449 8.75 32.0449 5.8125 30.7949 5.8125ZM27.2324 14.5625H16.8574C13.8574 17.375 7.04492 24.75 7.04492 34.5C7.04492 36.1576 7.7034 37.7473 8.8755 38.9194C10.0476 40.0915 11.6373 40.75 13.2949 40.75H30.7949C32.4525 40.75 34.0422 40.0915 35.2143 38.9194C36.3864 37.7473 37.0449 36.1576 37.0449 34.5C37.0449 24.8125 30.2949 17.375 27.2324 14.5625ZM23.2949 35V35.75C23.2949 36.0815 23.1632 36.3995 22.9288 36.6339C22.6944 36.8683 22.3764 37 22.0449 37C21.7134 37 21.3955 36.8683 21.161 36.6339C20.9266 36.3995 20.7949 36.0815 20.7949 35.75V34.9375C19.7264 34.6616 18.7791 34.04 18.1008 33.1695C17.4225 32.299 17.0513 31.2286 17.0449 30.125C17.0449 29.7935 17.1766 29.4755 17.411 29.2411C17.6455 29.0067 17.9634 28.875 18.2949 28.875C18.6264 28.875 18.9444 29.0067 19.1788 29.2411C19.4132 29.4755 19.5449 29.7935 19.5449 30.125C19.5449 30.788 19.8083 31.4239 20.2772 31.8928C20.746 32.3616 21.3819 32.625 22.0449 32.625C23.2324 32.625 24.5449 31.9375 24.5449 30.4375C24.5449 30.0625 24.5449 28.875 21.7949 28.25C17.6699 27.3125 17.1074 24.9375 17.1074 23.625C17.1025 22.5466 17.4746 21.5004 18.1594 20.6673C18.8441 19.8342 19.7985 19.2665 20.8574 19.0625V18.25C20.8574 17.9185 20.9891 17.6005 21.2235 17.3661C21.458 17.1317 21.7759 17 22.1074 17C22.4389 17 22.7569 17.1317 22.9913 17.3661C23.2257 17.6005 23.3574 17.9185 23.3574 18.25V19.0625C24.2926 19.3021 25.1385 19.8073 25.7928 20.5171C26.4472 21.2269 26.882 22.1109 27.0449 23.0625C27.1003 23.2323 27.1185 23.412 27.0986 23.5895C27.0786 23.767 27.0208 23.9382 26.9291 24.0914C26.8374 24.2447 26.7139 24.3766 26.567 24.4781C26.42 24.5796 26.253 24.6485 26.0772 24.6801C25.9014 24.7116 25.7209 24.7051 25.5478 24.661C25.3747 24.6169 25.2131 24.5363 25.0738 24.4244C24.9346 24.3126 24.8209 24.1723 24.7404 24.0128C24.66 23.8533 24.6146 23.6785 24.6074 23.5C24.5157 22.893 24.2039 22.3409 23.7313 21.949C23.2587 21.5571 22.6585 21.3528 22.0449 21.375C20.8574 21.375 19.5449 22.0625 19.5449 23.5625C19.5449 23.9375 19.5449 25.125 22.2949 25.75C26.3574 26.6875 26.9824 29.0625 26.9824 30.375C27.0048 31.4552 26.6483 32.5092 25.9747 33.3541C25.3011 34.1989 24.353 34.7812 23.2949 35Z" fill="#EEECDE"/>
<path d="M38.4824 17.25C37.9091 16.4018 37.1362 15.7075 36.2317 15.2279C35.3272 14.7484 34.3187 14.4985 33.2949 14.5C32.9634 14.5 32.6455 14.6317 32.411 14.8661C32.1766 15.1005 32.0449 15.4185 32.0449 15.75C32.0449 16.0815 32.1766 16.3995 32.411 16.6339C32.6455 16.8683 32.9634 17 33.2949 17C33.9091 16.9943 34.5152 17.1394 35.0601 17.4228C35.605 17.7061 36.0719 18.119 36.4199 18.625C36.6196 18.8534 36.8955 19.0015 37.1963 19.0415C37.497 19.0815 37.802 19.0108 38.0545 18.8425C38.3069 18.6742 38.4895 18.4198 38.5683 18.1268C38.647 17.8338 38.6165 17.5222 38.4824 17.25Z" fill="#EEECDE"/>
</svg>
