<svg width="44" height="44" viewBox="0 0 45 44" fill="none" xmlns="http://www.w3.org/2000/svg">
<g clip-path="url(#clip0_82_45732)">
<path d="M15.3574 28.25C15.3574 29.0788 15.0282 29.8737 14.4421 30.4597C13.8561 31.0458 13.0612 31.375 12.2324 31.375C11.9009 31.375 11.583 31.5067 11.3485 31.7411C11.1141 31.9755 10.9824 32.2935 10.9824 32.625C10.9824 32.9565 11.1141 33.2745 11.3485 33.5089C11.583 33.7433 11.9009 33.875 12.2324 33.875C13.7243 33.875 15.155 33.2824 16.2099 32.2275C17.2648 31.1726 17.8574 29.7418 17.8574 28.25C17.8574 27.9185 17.7257 27.6005 17.4913 27.3661C17.2569 27.1317 16.9389 27 16.6074 27C16.2759 27 15.958 27.1317 15.7235 27.3661C15.4891 27.6005 15.3574 27.9185 15.3574 28.25ZM36.6074 28.25C36.6074 29.0788 36.2782 29.8737 35.6921 30.4597C35.1061 31.0458 34.3112 31.375 33.4824 31.375C33.1509 31.375 32.833 31.5067 32.5985 31.7411C32.3641 31.9755 32.2324 32.2935 32.2324 32.625C32.2324 32.9565 32.3641 33.2745 32.5985 33.5089C32.833 33.7433 33.1509 33.875 33.4824 33.875C34.9743 33.875 36.405 33.2824 37.4599 32.2275C38.5148 31.1726 39.1074 29.7418 39.1074 28.25C39.1074 27.9185 38.9757 27.6005 38.7413 27.3661C38.5069 27.1317 38.1889 27 37.8574 27C37.5259 27 37.208 27.1317 36.9735 27.3661C36.7391 27.6005 36.6074 27.9185 36.6074 28.25Z" fill="#EEECDE"/>
<path d="M42.1075 24.625L35.545 10.0625L35.3575 9.6875H35.295C34.7997 8.71347 34.0503 7.89142 33.1262 7.30832C32.202 6.72522 31.1374 6.40274 30.045 6.375C28.6122 6.3766 27.2283 6.89628 26.1486 7.83818C25.0688 8.78008 24.3661 10.0806 24.17 11.5C23.3016 11.3483 22.4135 11.3483 21.545 11.5C21.349 10.0806 20.6463 8.78008 19.5665 7.83818C18.4868 6.89628 17.1029 6.3766 15.67 6.375C14.5734 6.38554 13.5001 6.69338 12.5646 7.2657C11.629 7.83803 10.8663 8.65342 10.3575 9.625L10.17 10L3.60754 24.625C3.06194 25.9059 2.80847 27.2922 2.86555 28.6833C2.92262 30.0743 3.2888 31.4352 3.93749 32.6671C4.58619 33.899 5.50111 34.9709 6.6158 35.805C7.73049 36.6392 9.01697 37.2146 10.3818 37.4894C11.7466 37.7643 13.1556 37.7317 14.5062 37.3941C15.8569 37.0564 17.1154 36.4222 18.1904 35.5375C19.2653 34.6527 20.1297 33.5396 20.7208 32.2791C21.3119 31.0186 21.6148 29.6422 21.6075 28.25V21.5625C22.4278 21.3535 23.2873 21.3535 24.1075 21.5625V28.25C24.1003 29.6422 24.4032 31.0186 24.9943 32.2791C25.5853 33.5396 26.4497 34.6527 27.5247 35.5375C28.5997 36.4222 29.8582 37.0564 31.2088 37.3941C32.5595 37.7317 33.9684 37.7643 35.3333 37.4894C36.6981 37.2146 37.9846 36.6392 39.0993 35.805C40.214 34.9709 41.1289 33.899 41.7776 32.6671C42.4263 31.4352 42.7925 30.0743 42.8495 28.6833C42.9066 27.2922 42.6531 25.9059 42.1075 24.625ZM12.2325 35.125C10.8728 35.125 9.54358 34.7218 8.41299 33.9664C7.28241 33.2109 6.40122 32.1372 5.88087 30.8809C5.36051 29.6247 5.22437 28.2424 5.48964 26.9088C5.75491 25.5751 6.40969 24.3501 7.37118 23.3886C8.33267 22.4272 9.55767 21.7724 10.8913 21.5071C12.2249 21.2418 13.6072 21.378 14.8635 21.8983C16.1197 22.4187 17.1935 23.2999 17.9489 24.4305C18.7043 25.561 19.1075 26.8903 19.1075 28.25C19.1075 30.0734 18.3832 31.822 17.0939 33.1114C15.8046 34.4007 14.0559 35.125 12.2325 35.125ZM33.4825 35.125C32.1228 35.125 30.7936 34.7218 29.663 33.9664C28.5324 33.2109 27.6512 32.1372 27.1309 30.8809C26.6105 29.6247 26.4744 28.2424 26.7396 26.9088C27.0049 25.5751 27.6597 24.3501 28.6212 23.3886C29.5827 22.4272 30.8077 21.7724 32.1413 21.5071C33.4749 21.2418 34.8572 21.378 36.1135 21.8983C37.3697 22.4187 38.4435 23.2999 39.1989 24.4305C39.9543 25.561 40.3575 26.8903 40.3575 28.25C40.3575 30.0734 39.6332 31.822 38.3439 33.1114C37.0546 34.4007 35.3059 35.125 33.4825 35.125Z" fill="#EEECDE"/>
</g>
<defs>
<clipPath id="clip0_82_45732">
<rect width="40" height="40" fill="white" transform="translate(2.85742 2)"/>
</clipPath>
</defs>
</svg>
