<svg width="44" height="44" viewBox="0 0 44 44" fill="none" xmlns="http://www.w3.org/2000/svg">
<path d="M37.8381 23.515C37.5188 22.7431 34.7281 19.2412 34.7281 18.6625C34.7281 17.9944 35.3962 15.9406 35.3962 14.6538C35.3962 8.79875 32.1363 2 20.785 2C9.66 2 6 10.15 6 14.6538C6 19.1575 7.26563 22.5287 8.6725 24.0069C10.0794 25.485 11.3475 26.8425 11.3475 29.3519C11.3541 30.597 11.0111 31.8189 10.3575 32.8787C10.2726 33.0149 10.2439 33.1787 10.2773 33.3356C10.3108 33.4925 10.4038 33.6303 10.5369 33.72L22.0763 41.6169C22.1521 41.6687 22.2384 41.7032 22.3291 41.7179C22.4197 41.7326 22.5125 41.7272 22.6008 41.7019C22.6892 41.6767 22.7708 41.6323 22.84 41.5719C22.9092 41.5115 22.9643 41.4366 23.0013 41.3525C23.8006 39.5219 25.9781 34.6962 26.7113 34.6962C28.0475 34.6962 30.6781 36.0325 32.7244 36.0325C34.7706 36.0325 34.3863 31.3 35.0256 29.37C35.665 27.44 36.0644 26.3075 36.0644 25.3431C38.6212 25.0856 38.16 24.2869 37.8381 23.515ZM27.9063 18.3606C28.0788 18.0804 28.1908 17.7671 28.2351 17.4409C28.2793 17.1148 28.2548 16.783 28.1631 16.4669C28.0607 15.9736 27.8238 15.5182 27.4785 15.1513C27.1332 14.7844 26.6931 14.5202 26.2069 14.3881C25.6144 14.2403 24.9938 14.2473 24.4047 14.4084C23.8157 14.5695 23.2779 14.8793 22.8431 15.3081C22.7293 15.426 22.6663 15.5839 22.6677 15.7478C22.6691 15.9116 22.7349 16.0684 22.8507 16.1843C22.9666 16.3001 23.1234 16.3659 23.2872 16.3673C23.4511 16.3687 23.609 16.3057 23.7269 16.1919C24.004 15.9181 24.3463 15.7195 24.7215 15.6146C25.0966 15.5098 25.4923 15.5022 25.8713 15.5925C26.1432 15.667 26.3887 15.8166 26.5795 16.0242C26.7703 16.2318 26.8987 16.489 26.95 16.7662C27.0028 16.8954 27.0282 17.0341 27.0247 17.1736C27.0211 17.3131 26.9887 17.4504 26.9294 17.5767C26.8702 17.703 26.7854 17.8157 26.6804 17.9076C26.5754 17.9995 26.4524 18.0686 26.3194 18.1106C26.1778 18.1539 26.0565 18.2467 25.9775 18.372C25.8986 18.4972 25.8673 18.6467 25.8894 18.7931C25.6537 18.8231 25.42 18.8556 25.1606 18.875C23.3331 19.0262 21.8312 19.1588 20.6144 19.3044C20.7281 19.1841 20.7894 19.0237 20.785 18.8582C20.7805 18.6928 20.7106 18.5359 20.5906 18.4219C20.4197 18.2593 20.295 18.0543 20.2291 17.8278C20.1632 17.6013 20.1586 17.3614 20.2156 17.1325C20.3048 16.7966 20.4798 16.4896 20.7233 16.2416C20.9669 15.9937 21.2707 15.8133 21.605 15.7181C21.7625 15.6657 21.8927 15.5528 21.9669 15.4043C22.0412 15.2559 22.0534 15.084 22.0009 14.9266C21.9485 14.7691 21.8356 14.6389 21.6872 14.5647C21.5387 14.4904 21.3668 14.4782 21.2094 14.5306C20.6697 14.6927 20.1817 14.9928 19.7934 15.4012C19.4052 15.8096 19.1302 16.3122 18.9956 16.8594C18.8921 17.2987 18.9051 17.7575 19.0334 18.1903C19.1616 18.6231 19.4007 19.0149 19.7269 19.3269C19.7633 19.3567 19.8032 19.382 19.8456 19.4025C17.7456 19.6975 16.6794 20.0681 16.4081 20.7487C15.9631 21.8612 15.7831 24.4988 14.5331 24.4988C14.3639 24.5202 14.1919 24.5027 14.0305 24.4475C13.869 24.3922 13.7224 24.3008 13.6017 24.1802C13.4811 24.0595 13.3896 23.9128 13.3344 23.7514C13.2792 23.59 13.2616 23.418 13.2831 23.2488C13.2831 22.1069 12.6775 20.7912 12.0625 19.5612C12.1793 19.5235 12.2824 19.4519 12.3585 19.3556C12.4346 19.2592 12.4803 19.1424 12.49 19.02C12.5089 18.6559 12.6058 18.3001 12.774 17.9767C12.9422 17.6532 13.1778 17.3696 13.465 17.145C14.0468 16.701 14.7546 16.4533 15.4862 16.4375C15.5566 16.7903 15.6998 17.1245 15.9068 17.4188C16.1137 17.713 16.3799 17.9608 16.6881 18.1462C16.7564 18.1935 16.8333 18.2266 16.9145 18.2438C16.9957 18.261 17.0796 18.2618 17.1611 18.2462C17.2426 18.2306 17.3202 18.199 17.3894 18.1531C17.4585 18.1072 17.5178 18.048 17.5639 17.9789C17.6099 17.9099 17.6417 17.8323 17.6574 17.7508C17.6732 17.6693 17.6725 17.5855 17.6555 17.5043C17.6385 17.4231 17.6055 17.346 17.5584 17.2777C17.5113 17.2093 17.4511 17.1511 17.3813 17.1063C17.1537 16.9995 16.9676 16.8207 16.8518 16.5976C16.736 16.3745 16.6969 16.1194 16.7406 15.8719C16.802 15.6699 16.9223 15.4909 17.0861 15.3578C17.2499 15.2248 17.4498 15.1437 17.66 15.125C17.8258 15.125 17.9847 15.0592 18.1019 14.9419C18.2192 14.8247 18.285 14.6658 18.285 14.5C18.285 14.3342 18.2192 14.1753 18.1019 14.0581C17.9847 13.9408 17.8258 13.875 17.66 13.875C17.2408 13.8924 16.8342 14.0238 16.4841 14.2551C16.134 14.4863 15.8536 14.8087 15.6731 15.1875C14.5948 15.1633 13.5408 15.5102 12.6875 16.17C12.1397 16.6019 11.7225 17.1775 11.4825 17.8325C11.2063 16.7397 11.0715 15.6159 11.0813 14.4888C11.1018 14.4944 11.1227 14.4989 11.1438 14.5025C11.2653 14.5024 11.3842 14.4669 11.4859 14.4003C11.5876 14.3337 11.6676 14.2389 11.7162 14.1275C11.7905 14.0071 11.8929 13.9065 12.0146 13.8343C12.1363 13.7621 12.2737 13.7206 12.415 13.7131C12.6104 13.6982 12.8061 13.739 12.9793 13.8307C13.1525 13.9224 13.2962 14.0613 13.3937 14.2312C13.4404 14.2988 13.4999 14.3565 13.5689 14.401C13.6378 14.4456 13.7149 14.4761 13.7957 14.4909C13.8764 14.5057 13.9593 14.5044 14.0395 14.4871C14.1198 14.4699 14.1959 14.437 14.2634 14.3903C14.331 14.3437 14.3887 14.2841 14.4332 14.2152C14.4778 14.1462 14.5083 14.0692 14.5231 13.9884C14.5379 13.9077 14.5366 13.8248 14.5193 13.7445C14.5021 13.6643 14.4692 13.5882 14.4225 13.5206C14.2625 13.2628 14.052 13.04 13.8037 12.8657C13.5553 12.6913 13.2743 12.569 12.9775 12.506C12.6806 12.4431 12.3741 12.4408 12.0764 12.4994C11.7787 12.558 11.4959 12.6762 11.245 12.8469C11.5011 11.3443 12.2585 9.97272 13.3937 8.95562C13.34 10.5087 13.8938 12.1362 15.62 12.6037C15.6738 12.6184 15.7293 12.6255 15.785 12.625C15.9364 12.6248 16.0825 12.5697 16.1963 12.4699C16.3101 12.3701 16.3838 12.2323 16.4038 12.0823C16.4237 11.9322 16.3885 11.7801 16.3047 11.654C16.2209 11.5279 16.0942 11.4366 15.9481 11.3969C14.5075 11.0062 14.5844 9.24813 14.6844 8.50937C14.7015 8.36689 14.6681 8.22292 14.59 8.1025C14.7544 8.00875 14.9281 7.92 15.1069 7.83375C15.1443 7.94155 15.2108 8.0369 15.2991 8.10926C15.3873 8.18162 15.4938 8.22816 15.6069 8.24375C16.0769 8.29144 16.5318 8.43616 16.943 8.66875C17.3542 8.90135 17.7126 9.21675 17.9956 9.595C18.2971 10.0478 18.4256 10.594 18.3575 11.1338C17.6468 11.2826 17.0086 11.6706 16.5494 12.2331C16.4981 12.2972 16.4599 12.3708 16.437 12.4497C16.4142 12.5285 16.4071 12.6111 16.4161 12.6927C16.4252 12.7743 16.4502 12.8533 16.4898 12.9252C16.5294 12.9972 16.5828 13.0606 16.6469 13.1119C16.711 13.1632 16.7846 13.2013 16.8634 13.2242C16.9423 13.2471 17.0248 13.2542 17.1064 13.2451C17.188 13.2361 17.2671 13.211 17.339 13.1714C17.4109 13.1318 17.4743 13.0785 17.5256 13.0144C17.732 12.7647 17.9969 12.57 18.2968 12.4475C18.5967 12.325 18.9222 12.2787 19.2444 12.3125C19.4443 12.3201 19.6392 12.3781 19.8107 12.4812C19.9822 12.5842 20.125 12.7289 20.2256 12.9019C20.2624 12.9753 20.3132 13.0408 20.3752 13.0945C20.4372 13.1483 20.5093 13.1893 20.5871 13.2153C20.665 13.2412 20.7473 13.2516 20.8291 13.2457C20.911 13.2399 20.991 13.218 21.0644 13.1812C21.1378 13.1445 21.2033 13.0937 21.257 13.0317C21.3108 12.9696 21.3518 12.8976 21.3778 12.8197C21.4037 12.7419 21.4141 12.6596 21.4082 12.5777C21.4024 12.4958 21.3805 12.4159 21.3437 12.3425C21.1713 12.0186 20.9255 11.7396 20.626 11.5277C20.3265 11.3157 19.9815 11.1768 19.6188 11.1219C19.6814 10.335 19.4742 9.55027 19.0313 8.89687C18.4714 8.09882 17.661 7.51062 16.7288 7.22563C17.0358 7.13698 17.3465 7.0617 17.66 7C18.5478 6.82887 19.4496 6.74037 20.3537 6.73563C20.3466 6.84281 20.3675 6.95002 20.4146 7.0466C20.4616 7.14319 20.5331 7.2258 20.6219 7.28625C21.047 7.54003 21.367 7.93786 21.5237 8.40748C21.6805 8.8771 21.6637 9.38737 21.4763 9.84563C21.4021 9.9939 21.3898 10.1656 21.4422 10.3229C21.4946 10.4802 21.6074 10.6102 21.7556 10.6844C21.9039 10.7586 22.0756 10.7708 22.2329 10.7184C22.3902 10.666 22.5202 10.5533 22.5944 10.405C22.869 9.81149 22.955 9.14807 22.8409 8.50416C22.7268 7.86024 22.418 7.26678 21.9563 6.80375C22.8252 6.88463 23.6838 7.05341 24.5187 7.3075C24.4689 7.4466 24.4707 7.59898 24.5237 7.73687C25.1637 9.33562 24.8144 10.7287 23.5862 11.4644C23.4441 11.5497 23.3417 11.6879 23.3015 11.8487C23.2613 12.0095 23.2866 12.1797 23.3719 12.3219C23.4572 12.464 23.5954 12.5665 23.7562 12.6067C23.917 12.6469 24.0872 12.6215 24.2294 12.5362C25.8481 11.565 26.4381 9.79313 25.8613 7.8275C26.7064 8.2177 27.4771 8.75215 28.1387 9.40687C28.053 9.47689 27.9877 9.56864 27.9495 9.67253C27.9114 9.77642 27.9018 9.88865 27.9219 9.9975C28.1175 10.9975 28.0394 11.7475 27.6975 12.1644C27.5305 12.3319 27.3284 12.4602 27.1057 12.5398C26.883 12.6195 26.6453 12.6486 26.41 12.625C26.2442 12.625 26.0853 12.6908 25.9681 12.8081C25.8508 12.9253 25.785 13.0842 25.785 13.25C25.785 13.4158 25.8508 13.5747 25.9681 13.6919C26.0853 13.8092 26.2442 13.875 26.41 13.875C26.8307 13.9045 27.2525 13.8372 27.6432 13.6784C28.0339 13.5196 28.383 13.2734 28.6638 12.9588C29.1082 12.3682 29.3247 11.6373 29.2737 10.9C29.6899 11.6323 29.9889 12.4252 30.16 13.25C30.5937 15.3162 30.8088 17.3788 27.9063 18.3606Z" fill="#EEECDE"/>
</svg>
