<svg width="44" height="44" viewBox="0 0 44 44" fill="none" xmlns="http://www.w3.org/2000/svg">
<path d="M22.125 2L1 18.625H43.25L22.125 2Z" fill="#EEECDE"/>
<path d="M39.625 23.625C39.9565 23.625 40.2745 23.4933 40.5089 23.2589C40.7433 23.0245 40.875 22.7065 40.875 22.375C40.875 22.0435 40.7433 21.7255 40.5089 21.4911C40.2745 21.2567 39.9565 21.125 39.625 21.125H30.875C30.5435 21.125 30.2255 21.2567 29.9911 21.4911C29.7567 21.7255 29.625 22.0435 29.625 22.375C29.625 22.7065 29.7567 23.0245 29.9911 23.2589C30.2255 23.4933 30.5435 23.625 30.875 23.625V33.625H25.875V23.625H27.125C27.4565 23.625 27.7745 23.4933 28.0089 23.2589C28.2433 23.0245 28.375 22.7065 28.375 22.375C28.375 22.0435 28.2433 21.7255 28.0089 21.4911C27.7745 21.2567 27.4565 21.125 27.125 21.125H17.125C16.7935 21.125 16.4755 21.2567 16.2411 21.4911C16.0067 21.7255 15.875 22.0435 15.875 22.375C15.875 22.7065 16.0067 23.0245 16.2411 23.2589C16.4755 23.4933 16.7935 23.625 17.125 23.625H18.375V33.625H13.375V23.625C13.7065 23.625 14.0245 23.4933 14.2589 23.2589C14.4933 23.0245 14.625 22.7065 14.625 22.375C14.625 22.0435 14.4933 21.7255 14.2589 21.4911C14.0245 21.2567 13.7065 21.125 13.375 21.125H4.625C4.29348 21.125 3.97554 21.2567 3.74112 21.4911C3.5067 21.7255 3.375 22.0435 3.375 22.375C3.375 22.7065 3.5067 23.0245 3.74112 23.2589C3.97554 23.4933 4.29348 23.625 4.625 23.625H5.875V33.625H4.625C4.29348 33.625 3.97554 33.7567 3.74112 33.9911C3.5067 34.2255 3.375 34.5435 3.375 34.875C3.375 35.2065 3.5067 35.5245 3.74112 35.7589C3.97554 35.9933 4.29348 36.125 4.625 36.125H39.625C39.9565 36.125 40.2745 35.9933 40.5089 35.7589C40.7433 35.5245 40.875 35.2065 40.875 34.875C40.875 34.5435 40.7433 34.2255 40.5089 33.9911C40.2745 33.7567 39.9565 33.625 39.625 33.625H38.375V23.625H39.625ZM40.875 38.625H3.375C3.04348 38.625 2.72554 38.7567 2.49112 38.9911C2.2567 39.2255 2.125 39.5435 2.125 39.875C2.125 40.2065 2.2567 40.5245 2.49112 40.7589C2.72554 40.9933 3.04348 41.125 3.375 41.125H40.875C41.2065 41.125 41.5245 40.9933 41.7589 40.7589C41.9933 40.5245 42.125 40.2065 42.125 39.875C42.125 39.5435 41.9933 39.2255 41.7589 38.9911C41.5245 38.7567 41.2065 38.625 40.875 38.625Z" fill="#EEECDE"/>
</svg>
