<svg width="22" height="24" viewBox="0 0 22 24" fill="none" xmlns="http://www.w3.org/2000/svg">
<path d="M3 7C4.65685 7 6 5.65685 6 4C6 2.34315 4.65685 1 3 1C1.34315 1 0 2.34315 0 4C0 5.65685 1.34315 7 3 7Z" fill="#EEECDE"/>
<path d="M19 7C20.6569 7 22 5.65685 22 4C22 2.34315 20.6569 1 19 1C17.3431 1 16 2.34315 16 4C16 5.65685 17.3431 7 19 7Z" fill="#EEECDE"/>
<path d="M3 23C4.65685 23 6 21.6569 6 20C6 18.3431 4.65685 17 3 17C1.34315 17 0 18.3431 0 20C0 21.6569 1.34315 23 3 23Z" fill="#EEECDE"/>
<path d="M19 23C20.6569 23 22 21.6569 22 20C22 18.3431 20.6569 17 19 17C17.3431 17 16 18.3431 16 20C16 21.6569 17.3431 23 19 23Z" fill="#EEECDE"/>
<path d="M11 15C12.6569 15 14 13.6569 14 12C14 10.3431 12.6569 9 11 9C9.34315 9 8 10.3431 8 12C8 13.6569 9.34315 15 11 15Z" fill="#EEECDE"/>
</svg>
