<svg width="132" height="45" viewBox="0 0 132 45" fill="none" xmlns="http://www.w3.org/2000/svg">
<path d="M0.0109256 16.9909C0.0109256 16.9909 -0.856304 1.30362 16.6882 0.0743523C16.6882 0.0743523 17.9158 15.474 0.0109256 16.9909Z" fill="#16363D"/>
<path d="M16.699 35.7174C16.699 35.7174 17.5662 20.0302 0.021759 18.8009C0.021759 18.8009 -1.20587 34.2006 16.699 35.7174Z" fill="#16363D"/>
<path d="M37.3689 18.7981C37.3689 18.7981 38.2362 34.4853 20.6917 35.7146C20.6917 35.7146 19.464 20.315 37.3689 18.7981Z" fill="#16363D"/>
<path d="M20.6808 0.0743527C20.6808 0.0743527 19.8136 15.7616 37.3581 16.9909C37.3581 16.9909 38.5857 1.5912 20.6808 0.0743527Z" fill="#16363D"/>
<path d="M19.0418 9.7957H18.4336V43.1522H19.0418V9.7957Z" fill="#16363D"/>
<path d="M19.0418 33.1687L18.4336 33.1489C18.8109 21.2256 23.8059 17.5576 24.0171 17.4081L24.369 17.9072C24.3184 17.9438 19.4078 21.5837 19.0418 33.1715V33.1687Z" fill="#16363D"/>
<path d="M18.423 33.1687C18.0569 21.5837 13.1436 17.941 13.0957 17.9044L13.4477 17.4053C13.6588 17.5547 18.6538 21.2228 19.0311 33.1461L18.423 33.1659V33.1687Z" fill="#16363D"/>
<path d="M25.6232 16.0351H23.4805V18.1807H25.6232V16.0351Z" fill="#16363D"/>
<path d="M19.8595 42.7801H17.7168V44.9256H19.8595V42.7801Z" fill="#16363D"/>
<path d="M13.9005 16.0351H11.7578V18.1807H13.9005V16.0351Z" fill="#16363D"/>
<path d="M19.8595 8.53261H17.7168V10.6782H19.8595V8.53261Z" fill="#16363D"/>
<path d="M54.505 10.1129C54.978 10.1129 55.4004 10.189 55.7805 10.3413C56.1578 10.4935 56.4816 10.7021 56.7519 10.9672C57.0222 11.2322 57.2277 11.5423 57.3713 11.8891C57.5149 12.2387 57.5853 12.6137 57.5853 13.0169C57.5853 13.6372 57.453 14.1728 57.194 14.624C56.9321 15.0751 56.5097 15.419 55.9185 15.6559V15.6841C56.2057 15.763 56.4422 15.8842 56.628 16.0449C56.811 16.2085 56.9659 16.4002 57.0841 16.6201C57.2024 16.8428 57.2869 17.0853 57.3404 17.3503C57.3967 17.6154 57.4305 17.8804 57.453 18.1454C57.4614 18.3146 57.4727 18.5091 57.4812 18.7347C57.4924 18.9602 57.5093 19.1914 57.5347 19.4282C57.56 19.6651 57.5966 19.8878 57.6529 20.0993C57.7092 20.3107 57.7881 20.4912 57.8951 20.6378H55.5834C55.4567 20.3023 55.3778 19.9047 55.3497 19.4423C55.3187 18.98 55.2765 18.5373 55.2145 18.1144C55.1385 17.5646 54.9696 17.1614 54.7133 16.9049C54.4571 16.6511 54.0432 16.5214 53.4632 16.5214H51.1515V20.6349H48.8398V10.1044H54.5106L54.505 10.1129ZM53.68 14.8777C54.2093 14.8777 54.6092 14.7593 54.8738 14.5253C55.1413 14.2884 55.2737 13.905 55.2737 13.375C55.2737 12.8449 55.1413 12.4925 54.8738 12.2613C54.6092 12.0301 54.2122 11.9145 53.68 11.9145H51.1487V14.8805H53.68V14.8777Z" fill="#16363D"/>
<path d="M61.491 18.8164C61.8035 19.1209 62.254 19.276 62.8425 19.276C63.2649 19.276 63.6281 19.1689 63.935 18.9574C64.2391 18.7459 64.4249 18.5232 64.4925 18.2864H66.334C66.0411 19.1999 65.5878 19.854 64.9796 20.2487C64.3714 20.6406 63.6337 20.838 62.7721 20.838C62.1724 20.838 61.6318 20.7421 61.1503 20.5504C60.6688 20.3587 60.2634 20.0852 59.9283 19.7327C59.5932 19.3803 59.337 18.9574 59.154 18.464C58.9738 17.9734 58.8809 17.4321 58.8809 16.8428C58.8809 16.2536 58.9738 15.7404 59.1624 15.2499C59.3483 14.7565 59.6129 14.3336 59.9564 13.9727C60.3 13.6118 60.711 13.3298 61.1897 13.124C61.6656 12.9182 62.1921 12.8139 62.7721 12.8139C63.4169 12.8139 63.9857 12.9379 64.4672 13.1889C64.9486 13.4398 65.3456 13.7753 65.6526 14.1982C65.9623 14.6211 66.1847 15.1033 66.3227 15.6446C66.4607 16.1859 66.5085 16.7498 66.4691 17.3419H60.9757C61.0067 18.0214 61.1756 18.5119 61.4938 18.8164H61.491ZM63.8505 14.8044C63.5999 14.5281 63.2198 14.3928 62.7102 14.3928C62.3779 14.3928 62.0992 14.4492 61.8796 14.5619C61.6571 14.6747 61.4797 14.8157 61.3502 14.982C61.2151 15.1484 61.1221 15.326 61.0686 15.5121C61.0123 15.6982 60.9842 15.8673 60.9729 16.0139H64.3771C64.2785 15.4839 64.1011 15.0779 63.8505 14.8044Z" fill="#16363D"/>
<path d="M69.6949 13.0197V14.0798H69.7399C70.0046 13.6371 70.3481 13.3157 70.7705 13.1127C71.19 12.9126 71.6236 12.8111 72.0657 12.8111C72.626 12.8111 73.085 12.8872 73.4426 13.0394C73.8002 13.1917 74.0845 13.4031 74.2901 13.6738C74.4956 13.9445 74.642 14.2743 74.7237 14.6634C74.8054 15.0525 74.8504 15.4839 74.8504 15.9547V20.6462H72.7584V16.3381C72.7584 15.7094 72.6598 15.2386 72.4655 14.9284C72.2684 14.6183 71.9193 14.4632 71.4181 14.4632C70.8493 14.4632 70.4354 14.6324 70.182 14.9707C69.9258 15.3119 69.7991 15.8673 69.7991 16.6455V20.6434H67.707V13.0169H69.6977L69.6949 13.0197Z" fill="#16363D"/>
<path d="M78.6804 18.8164C78.993 19.1209 79.4435 19.276 80.032 19.276C80.4543 19.276 80.8175 19.1689 81.1244 18.9574C81.4285 18.7459 81.6144 18.5232 81.682 18.2864H83.5234C83.2306 19.1999 82.7772 19.854 82.1691 20.2487C81.5609 20.6406 80.8232 20.8379 79.9616 20.8379C79.3618 20.8379 78.8212 20.7421 78.3397 20.5504C77.8583 20.3586 77.4528 20.0852 77.1177 19.7327C76.7827 19.3803 76.5265 18.9574 76.3434 18.464C76.1632 17.9734 76.0703 17.4321 76.0703 16.8428C76.0703 16.2536 76.1632 15.7404 76.3519 15.2499C76.5377 14.7565 76.8024 14.3336 77.1459 13.9727C77.4894 13.6118 77.9005 13.3298 78.3792 13.124C78.855 12.9182 79.3815 12.8139 79.9616 12.8139C80.6064 12.8139 81.1751 12.9379 81.6566 13.1889C82.1381 13.4398 82.5351 13.7753 82.842 14.1982C83.1517 14.6211 83.3742 15.1033 83.5121 15.6446C83.6501 16.1859 83.698 16.7498 83.6586 17.3419H78.1652C78.1961 18.0213 78.3651 18.5119 78.6833 18.8164H78.6804ZM81.0428 14.8044C80.7922 14.5281 80.4121 14.3928 79.9024 14.3928C79.5702 14.3928 79.2914 14.4491 79.0718 14.5619C78.8494 14.6747 78.672 14.8157 78.5425 14.982C78.4073 15.1484 78.3144 15.326 78.2609 15.5121C78.2046 15.6982 78.1764 15.8673 78.1652 16.0139H81.5693C81.4708 15.4839 81.2934 15.0779 81.0428 14.8044Z" fill="#16363D"/>
<path d="M91.4491 20.6462L90.0948 15.529H90.0666L88.7686 20.6462H86.6033L84.1875 13.0197H86.3978L87.7972 18.1962H87.8254L89.0924 13.0197H91.1253L92.4234 18.1821H92.4543L93.8509 13.0197H96.0049L93.6003 20.6462H91.4491Z" fill="#16363D"/>
<path d="M105.053 10.0142V11.9793H99.4475V14.2574H104.592V16.076H99.4475V18.6811H105.172V20.6462H97.1133V10.0142H105.053Z" fill="#16363D"/>
<path d="M111.987 19.6622C111.74 20.0795 111.413 20.3784 111.01 20.5645C110.608 20.7477 110.157 20.8408 109.653 20.8408C109.079 20.8408 108.572 20.728 108.136 20.5052C107.699 20.2825 107.342 19.978 107.057 19.5974C106.773 19.214 106.562 18.7741 106.415 18.2779C106.272 17.7817 106.201 17.2657 106.201 16.7301C106.201 16.1944 106.272 15.7151 106.415 15.2358C106.562 14.7536 106.773 14.3307 107.057 13.9614C107.342 13.592 107.696 13.2988 108.121 13.0761C108.547 12.8534 109.042 12.7406 109.605 12.7406C110.061 12.7406 110.495 12.8364 110.909 13.031C111.32 13.2227 111.644 13.5103 111.883 13.8881H111.914V10.017H114.026V20.649H112.016V19.6651H111.987V19.6622ZM111.897 15.8588C111.838 15.5656 111.737 15.3091 111.593 15.0835C111.45 14.8608 111.264 14.6803 111.039 14.5422C110.81 14.404 110.52 14.3335 110.174 14.3335C109.828 14.3335 109.532 14.404 109.296 14.5422C109.056 14.6803 108.868 14.8636 108.724 15.092C108.578 15.3203 108.476 15.5797 108.411 15.8729C108.35 16.1662 108.316 16.4707 108.316 16.7893C108.316 17.0853 108.352 17.3842 108.42 17.683C108.487 17.979 108.6 18.2469 108.752 18.4781C108.907 18.7121 109.101 18.901 109.332 19.0448C109.566 19.1886 109.847 19.2619 110.174 19.2619C110.52 19.2619 110.813 19.1942 111.044 19.0533C111.278 18.9151 111.464 18.729 111.602 18.495C111.742 18.261 111.841 17.996 111.897 17.6999C111.956 17.4011 111.987 17.0938 111.987 16.7752C111.987 16.4566 111.956 16.1521 111.897 15.8588Z" fill="#16363D"/>
<path d="M122.878 21.2129C122.793 21.6105 122.61 21.9798 122.334 22.3238C122.059 22.6678 121.656 22.9553 121.129 23.195C120.603 23.4346 119.899 23.553 119.018 23.553C118.64 23.553 118.257 23.5051 117.866 23.4121C117.475 23.319 117.117 23.1724 116.796 22.9722C116.475 22.7721 116.205 22.5183 115.994 22.2054C115.78 21.8924 115.659 21.5174 115.628 21.0832H117.725C117.824 21.4808 118.018 21.7543 118.305 21.9093C118.592 22.0644 118.925 22.1405 119.302 22.1405C119.896 22.1405 120.33 21.9629 120.603 21.6048C120.876 21.2496 121.008 20.7957 121 20.2515V19.2393H120.969C120.741 19.6453 120.417 19.9442 119.995 20.1387C119.572 20.3305 119.127 20.4291 118.663 20.4291C118.086 20.4291 117.59 20.3276 117.176 20.1246C116.759 19.9216 116.416 19.6425 116.151 19.2901C115.881 18.9377 115.687 18.526 115.563 18.0552C115.439 17.5843 115.377 17.0853 115.377 16.5581C115.377 16.0619 115.45 15.5826 115.594 15.1202C115.737 14.6578 115.949 14.2518 116.227 13.8994C116.506 13.5469 116.85 13.265 117.261 13.0592C117.672 12.8505 118.142 12.7462 118.68 12.7462C119.187 12.7462 119.629 12.8421 120.012 13.0282C120.394 13.2171 120.713 13.5357 120.972 13.9811H121.003V12.952H123.01V20.1585C123.01 20.4658 122.965 20.8182 122.884 21.2157L122.878 21.2129ZM119.986 18.6501C120.214 18.5317 120.4 18.371 120.549 18.1736C120.699 17.9734 120.811 17.7479 120.884 17.4969C120.958 17.2432 120.997 16.9782 120.997 16.699C120.997 16.3804 120.966 16.0816 120.907 15.7996C120.848 15.5149 120.746 15.2668 120.611 15.0469C120.473 14.8298 120.29 14.655 120.062 14.5253C119.834 14.3956 119.544 14.3307 119.198 14.3307C118.902 14.3307 118.646 14.3899 118.435 14.5084C118.221 14.6268 118.041 14.7903 117.9 14.9905C117.756 15.1935 117.652 15.4275 117.59 15.6925C117.525 15.9547 117.492 16.231 117.492 16.5186C117.492 16.8062 117.52 17.0712 117.573 17.3447C117.629 17.6182 117.722 17.8635 117.858 18.0834C117.993 18.3005 118.167 18.4809 118.387 18.6191C118.607 18.7572 118.877 18.8277 119.203 18.8277C119.499 18.8277 119.764 18.7685 119.992 18.6501H119.986Z" fill="#16363D"/>
<path d="M126.958 18.7995C127.273 19.1068 127.729 19.2619 128.326 19.2619C128.749 19.2619 129.118 19.1548 129.427 18.9433C129.731 18.729 129.923 18.5035 129.99 18.2666H131.849C131.553 19.1886 131.094 19.8512 130.483 20.2459C129.867 20.6434 129.126 20.8408 128.25 20.8408C127.648 20.8408 127.102 20.7421 126.617 20.5504C126.13 20.3558 125.719 20.0795 125.384 19.7243C125.046 19.369 124.787 18.9405 124.604 18.4443C124.421 17.948 124.328 17.4011 124.328 16.8062C124.328 16.2113 124.421 15.6925 124.613 15.1963C124.798 14.7001 125.066 14.2715 125.415 13.9078C125.761 13.5469 126.175 13.2594 126.654 13.0507C127.133 12.8421 127.668 12.7378 128.25 12.7378C128.904 12.7378 129.478 12.8646 129.959 13.1184C130.447 13.3721 130.844 13.7105 131.159 14.139C131.469 14.5647 131.694 15.0525 131.835 15.5995C131.973 16.1436 132.021 16.716 131.984 17.3109H126.437C126.468 17.996 126.64 18.4922 126.958 18.7995ZM129.346 14.7508C129.092 14.4717 128.707 14.3336 128.194 14.3336C127.856 14.3336 127.575 14.3928 127.352 14.5055C127.13 14.6183 126.95 14.7593 126.82 14.9284C126.685 15.0976 126.592 15.2752 126.536 15.4641C126.479 15.653 126.448 15.8222 126.44 15.9716H129.875C129.776 15.4359 129.599 15.0299 129.346 14.7508Z" fill="#16363D"/>
<path d="M50.8141 32.1495C50.9408 32.3947 51.1069 32.5949 51.3209 32.7472C51.5321 32.8994 51.7799 33.0122 52.0671 33.0883C52.3515 33.1616 52.6471 33.1983 52.9484 33.1983C53.1539 33.1983 53.3764 33.1814 53.6101 33.1447C53.8466 33.1109 54.0662 33.0432 54.2718 32.9473C54.4773 32.8515 54.6519 32.7133 54.7898 32.5414C54.9278 32.3694 54.9954 32.1495 54.9954 31.8844C54.9954 31.5997 54.9053 31.3685 54.7223 31.1908C54.5421 31.0132 54.3027 30.8666 54.0071 30.7482C53.7143 30.6298 53.3764 30.5283 53.0075 30.4381C52.633 30.3507 52.2557 30.252 51.8728 30.1448C51.4786 30.0462 51.0985 29.9249 50.724 29.784C50.3523 29.6402 50.0173 29.4569 49.7244 29.2314C49.4316 29.0058 49.1923 28.721 49.0093 28.3827C48.8291 28.0416 48.7361 27.6327 48.7361 27.1506C48.7361 26.6093 48.8516 26.1413 49.0825 25.7409C49.3134 25.3406 49.6146 25.0107 49.9891 24.7457C50.3608 24.4806 50.7831 24.2833 51.2534 24.1564C51.7264 24.0295 52.1966 23.9647 52.6696 23.9647C53.2159 23.9647 53.7452 24.0239 54.2521 24.1479C54.7589 24.2692 55.2094 24.4694 55.6008 24.7457C55.9921 25.022 56.3047 25.3716 56.5356 25.8001C56.7664 26.2259 56.8819 26.7446 56.8819 27.3564H54.6406C54.6209 27.0435 54.5561 26.7813 54.4435 26.5755C54.3309 26.3696 54.1788 26.2061 53.9958 26.0905C53.81 25.9721 53.5932 25.8875 53.3538 25.8396C53.1117 25.7917 52.8498 25.7663 52.5655 25.7663C52.3796 25.7663 52.191 25.786 52.0051 25.8255C51.8221 25.865 51.6504 25.9326 51.4983 26.0313C51.3435 26.13 51.2196 26.2512 51.121 26.4007C51.0225 26.5473 50.9718 26.7362 50.9718 26.9617C50.9718 27.1675 51.014 27.3339 51.09 27.4636C51.1689 27.5905 51.3237 27.7089 51.5546 27.816C51.7855 27.926 52.1037 28.0331 52.512 28.1402C52.9202 28.2474 53.4524 28.3855 54.1113 28.5519C54.3055 28.5913 54.5787 28.6618 54.9278 28.7662C55.277 28.8705 55.6205 29.034 55.9668 29.2596C56.3103 29.4879 56.6088 29.7896 56.8565 30.1674C57.1043 30.5452 57.231 31.0301 57.231 31.6222C57.231 32.1043 57.1381 32.5526 56.9495 32.9643C56.7664 33.3759 56.4877 33.734 56.1188 34.0328C55.75 34.3317 55.2938 34.5657 54.7504 34.7349C54.2042 34.904 53.5735 34.9858 52.8555 34.9858C52.2754 34.9858 51.7151 34.9153 51.1689 34.7715C50.6255 34.6305 50.144 34.405 49.7244 34.1005C49.3077 33.796 48.9727 33.4069 48.7277 32.9333C48.4827 32.4596 48.3645 31.9013 48.3757 31.2529H50.6142C50.6142 31.6053 50.6761 31.907 50.8057 32.1523L50.8141 32.1495Z" fill="#16363D"/>
<path d="M58.4272 29.2821C58.613 28.7859 58.8805 28.363 59.224 28.0134C59.5675 27.6638 59.9814 27.3931 60.4601 27.2014C60.9416 27.0097 61.4794 26.9138 62.0791 26.9138C62.6789 26.9138 63.2195 27.0097 63.7066 27.2014C64.1937 27.3931 64.6076 27.6638 64.9511 28.0134C65.2946 28.363 65.5593 28.7859 65.7451 29.2821C65.931 29.7783 66.0267 30.3338 66.0267 30.9427C66.0267 31.5517 65.9338 32.1044 65.7451 32.5949C65.5565 33.0855 65.2946 33.5056 64.9511 33.8552C64.6076 34.2048 64.1909 34.4727 63.7066 34.6587C63.2195 34.8448 62.6789 34.9379 62.0791 34.9379C61.4794 34.9379 60.9416 34.8448 60.4601 34.6587C59.9786 34.4727 59.5675 34.202 59.224 33.8552C58.8805 33.5056 58.613 33.0855 58.4272 32.5949C58.2414 32.1044 58.1484 31.5517 58.1484 30.9427C58.1484 30.3338 58.2385 29.7783 58.4272 29.2821ZM60.3278 31.8337C60.3869 32.1241 60.4883 32.3835 60.629 32.6147C60.7698 32.8459 60.9613 33.0291 61.1978 33.1673C61.4315 33.3054 61.7272 33.3731 62.0791 33.3731C62.4311 33.3731 62.7295 33.3054 62.9689 33.1673C63.211 33.0291 63.3997 32.8459 63.5433 32.6147C63.6869 32.3835 63.7854 32.1241 63.8445 31.8337C63.9037 31.5433 63.9318 31.2472 63.9318 30.9427C63.9318 30.6383 63.9009 30.3366 63.8445 30.0434C63.7854 29.7501 63.6841 29.4879 63.5433 29.2624C63.3997 29.0368 63.211 28.8507 62.9689 28.7098C62.7295 28.5688 62.4339 28.4955 62.0791 28.4955C61.7243 28.4955 61.4315 28.566 61.1978 28.7098C60.9613 28.8536 60.7726 29.0368 60.629 29.2624C60.4854 29.4908 60.3869 29.7501 60.3278 30.0434C60.2686 30.3366 60.2405 30.6383 60.2405 30.9427C60.2405 31.2472 60.2715 31.5433 60.3278 31.8337Z" fill="#16363D"/>
<path d="M69.5326 24.2156V34.7461H67.4434V24.2156H69.5326Z" fill="#16363D"/>
<path d="M76.3391 34.7461V33.686H76.294C76.0294 34.1287 75.6859 34.4473 75.2635 34.6446C74.844 34.842 74.4104 34.9379 73.9683 34.9379C73.408 34.9379 72.949 34.8646 72.5914 34.7179C72.231 34.5685 71.9495 34.3627 71.7439 34.0892C71.5384 33.8185 71.392 33.4915 71.3103 33.0996C71.2258 32.7105 71.1836 32.282 71.1836 31.8083V27.1168H73.2756V31.422C73.2756 32.0508 73.3742 32.5216 73.5685 32.8318C73.7656 33.1419 74.1119 33.297 74.6159 33.297C75.1847 33.297 75.5986 33.1278 75.852 32.7866C76.1054 32.4483 76.2349 31.8901 76.2349 31.1119V27.1168H78.327V34.7433H76.3363L76.3391 34.7461Z" fill="#16363D"/>
<path d="M84.1046 27.1224V28.5237H82.5729V32.2989C82.5729 32.6541 82.632 32.8881 82.7474 33.0066C82.8657 33.125 83.0994 33.1814 83.4542 33.1814C83.5724 33.1814 83.685 33.1785 83.792 33.1673C83.899 33.156 84.0032 33.1419 84.1018 33.1222V34.7461C83.9244 34.7743 83.7273 34.7969 83.5105 34.8053C83.2965 34.8138 83.0853 34.8194 82.8769 34.8194C82.5531 34.8194 82.2462 34.7969 81.9562 34.7518C81.6662 34.7067 81.4128 34.6221 81.1932 34.4952C80.9707 34.3683 80.7962 34.1851 80.6695 33.9482C80.5399 33.7142 80.478 33.4041 80.478 33.0178V28.5209H79.2109V27.1196H80.478V24.8331H82.57V27.1196H84.1018L84.1046 27.1224Z" fill="#16363D"/>
<path d="M85.1641 25.9411V24.2156H87.2533V25.9411H85.1641ZM87.2533 27.1224V34.749H85.1641V27.1224H87.2533Z" fill="#16363D"/>
<path d="M88.9487 29.2821C89.1345 28.7859 89.402 28.363 89.7455 28.0134C90.089 27.6638 90.5029 27.3931 90.9816 27.2014C91.4631 27.0097 92.0009 26.9138 92.6006 26.9138C93.2003 26.9138 93.741 27.0097 94.2281 27.2014C94.7152 27.3931 95.1291 27.6638 95.4726 28.0134C95.8161 28.363 96.0808 28.7859 96.2666 29.2821C96.4525 29.7783 96.5482 30.3337 96.5482 30.9427C96.5482 31.5517 96.4553 32.1043 96.2666 32.5949C96.078 33.0855 95.8161 33.5056 95.4726 33.8552C95.1291 34.2048 94.7124 34.4727 94.2281 34.6587C93.741 34.8448 93.2003 34.9379 92.6006 34.9379C92.0009 34.9379 91.4631 34.8448 90.9816 34.6587C90.5001 34.4727 90.089 34.202 89.7455 33.8552C89.402 33.5056 89.1345 33.0855 88.9487 32.5949C88.7628 32.1043 88.6699 31.5517 88.6699 30.9427C88.6699 30.3337 88.76 29.7783 88.9487 29.2821ZM90.8493 31.8337C90.9084 32.1241 91.0098 32.3835 91.1505 32.6147C91.2913 32.8459 91.4828 33.0291 91.7193 33.1673C91.953 33.3054 92.2486 33.3731 92.6006 33.3731C92.9526 33.3731 93.251 33.3054 93.4904 33.1673C93.7325 33.0291 93.9212 32.8459 94.0648 32.6147C94.2084 32.3835 94.3069 32.1241 94.366 31.8337C94.4252 31.5433 94.4533 31.2472 94.4533 30.9427C94.4533 30.6382 94.4224 30.3366 94.366 30.0434C94.3069 29.7501 94.2055 29.4879 94.0648 29.2624C93.9212 29.0368 93.7325 28.8507 93.4904 28.7098C93.251 28.5688 92.9554 28.4955 92.6006 28.4955C92.2458 28.4955 91.953 28.566 91.7193 28.7098C91.4828 28.8536 91.2941 29.0368 91.1505 29.2624C91.0069 29.4907 90.9084 29.7501 90.8493 30.0434C90.7901 30.3366 90.762 30.6382 90.762 30.9427C90.762 31.2472 90.7929 31.5433 90.8493 31.8337Z" fill="#16363D"/>
<path d="M99.8941 27.1224V28.1825H99.9392C100.204 27.7399 100.547 27.4185 100.97 27.2155C101.389 27.0153 101.823 26.9138 102.265 26.9138C102.825 26.9138 103.284 26.9899 103.642 27.1422C103.999 27.2944 104.284 27.5059 104.489 27.7765C104.695 28.0472 104.841 28.3771 104.923 28.7662C105.005 29.1552 105.05 29.5866 105.05 30.0574V34.749H102.958V30.4409C102.958 29.8122 102.859 29.3413 102.665 29.0312C102.468 28.721 102.119 28.566 101.617 28.566C101.049 28.566 100.635 28.7351 100.381 29.0735C100.125 29.4146 99.9983 29.97 99.9983 30.7482V34.7461H97.9062V27.1196H99.8969L99.8941 27.1224Z" fill="#16363D"/>
<path d="M108.4 32.8515C108.493 33.015 108.614 33.1447 108.764 33.249C108.91 33.3533 109.079 33.4295 109.273 33.4802C109.462 33.5281 109.665 33.5535 109.87 33.5535C110.017 33.5535 110.169 33.5366 110.332 33.5028C110.495 33.4689 110.642 33.4125 110.774 33.3392C110.906 33.2659 111.016 33.1673 111.106 33.0432C111.194 32.922 111.239 32.7669 111.239 32.578C111.239 32.2622 111.03 32.0282 110.611 31.8703C110.191 31.7124 109.614 31.5546 108.865 31.3995C108.561 31.3318 108.262 31.2501 107.975 31.157C107.688 31.064 107.429 30.9399 107.204 30.7877C106.978 30.6354 106.795 30.4437 106.66 30.2125C106.522 29.9813 106.455 29.6994 106.455 29.3639C106.455 28.8733 106.548 28.4701 106.742 28.1543C106.933 27.8386 107.187 27.5905 107.502 27.41C107.815 27.2267 108.169 27.0999 108.564 27.0266C108.958 26.9533 109.358 26.9166 109.772 26.9166C110.186 26.9166 110.585 26.9561 110.974 27.035C111.362 27.114 111.709 27.2465 112.01 27.4354C112.314 27.6215 112.568 27.8696 112.77 28.1797C112.973 28.4898 113.091 28.8817 113.131 29.3526H111.143C111.115 28.9494 110.963 28.6759 110.687 28.5321C110.411 28.3883 110.087 28.3179 109.715 28.3179C109.597 28.3179 109.468 28.3235 109.33 28.3404C109.192 28.3545 109.068 28.3884 108.955 28.4363C108.842 28.487 108.747 28.5575 108.665 28.6506C108.589 28.7436 108.547 28.8705 108.547 29.0255C108.547 29.2116 108.614 29.3639 108.752 29.4823C108.89 29.6007 109.07 29.6966 109.29 29.7699C109.51 29.8432 109.763 29.9108 110.05 29.97C110.335 30.0293 110.625 30.0913 110.92 30.1618C111.224 30.2294 111.523 30.314 111.81 30.4127C112.097 30.5114 112.356 30.6411 112.582 30.8046C112.807 30.9681 112.99 31.1683 113.125 31.4079C113.26 31.6476 113.331 31.9465 113.331 32.2989C113.331 32.8007 113.232 33.2208 113.032 33.5592C112.829 33.9003 112.568 34.171 112.244 34.3796C111.92 34.5882 111.548 34.732 111.132 34.8138C110.715 34.8984 110.287 34.9379 109.856 34.9379C109.425 34.9379 108.98 34.8927 108.561 34.8053C108.139 34.7179 107.764 34.5685 107.435 34.3627C107.105 34.1569 106.835 33.8834 106.624 33.5451C106.412 33.2039 106.297 32.781 106.277 32.2679H108.268C108.268 32.4934 108.313 32.688 108.406 32.8515H108.4Z" fill="#16363D"/>
</svg>
