<svg width="20" height="32" viewBox="0 0 20 32" fill="none" xmlns="http://www.w3.org/2000/svg">
<path d="M18.598 27.7809C18.603 29.37 18.4669 30.9539 16.3493 31.0822L4.7862 31.0831C4.28668 31.0831 3.74247 31.1217 3.24867 31.0418C1.14863 30.7018 1.39886 28.5929 1.40015 27.0522L1.39922 4.05843C1.39922 2.47269 1.64114 0.997758 3.70036 0.891574L15.1098 0.890651C15.5791 0.890651 16.086 0.852425 16.5487 0.926476C18.7734 1.28067 18.5991 3.38716 18.5973 5.01999L18.598 27.7809Z" fill="#EEECDE"/>
<path d="M9.9975 27.4988C10.4793 27.4988 10.8713 27.8909 10.8713 28.3727C10.8713 28.8545 10.4793 29.2465 9.9975 29.2465C9.5157 29.2465 9.12366 28.8545 9.12366 28.3727C9.12366 27.8909 9.5157 27.4988 9.9975 27.4988ZM9.9975 26.625C9.03243 26.625 8.25 27.4074 8.25 28.3725C8.25 29.3376 9.03243 30.12 9.9975 30.12C10.9626 30.12 11.745 29.3376 11.745 28.3725C11.745 27.4074 10.9626 26.625 9.9975 26.625Z" fill="#16363D"/>
<path fill-rule="evenodd" clip-rule="evenodd" d="M17.6235 22.711L17.6239 6.45274C17.6189 4.74458 16.7995 4.77782 15.3403 4.77819L5.55757 4.77911C3.77405 4.77412 2.37779 4.32778 2.39071 6.63353L2.39164 24.265C2.40364 25.8223 3.81727 25.6847 4.96331 25.6851L14.3706 25.6838L15.4747 25.6865C15.8625 25.6902 16.312 25.7421 16.6893 25.6378C17.96 25.2858 17.6244 23.7324 17.6235 22.711ZM5.20208 24.7726L16.1115 24.7721C16.9667 24.7421 16.7157 24.0602 16.7175 23.4515L16.7203 6.77868C16.721 5.26238 16.4653 5.6692 14.9215 5.66957H3.93102C2.98756 5.72054 3.29392 6.62134 3.29484 7.42871L3.29521 23.8268C3.29521 24.1649 3.17333 24.7325 3.65771 24.7597C4.16924 24.7883 4.68908 24.7721 5.20208 24.7726Z" fill="#16363D"/>
<path d="M13.2821 2.4696H8.16535C7.91007 2.4696 7.70312 2.67655 7.70312 2.93183C7.70312 3.1871 7.91007 3.39405 8.16535 3.39405H13.2821C13.5374 3.39405 13.7443 3.1871 13.7443 2.93183C13.7443 2.67655 13.5374 2.4696 13.2821 2.4696Z" fill="#16363D"/>
<path d="M6.90205 3.2499C7.08537 3.06658 7.08537 2.76936 6.90204 2.58604C6.71872 2.40272 6.4215 2.40272 6.23818 2.58604C6.05486 2.76936 6.05486 3.06658 6.23818 3.2499C6.4215 3.43322 6.71872 3.43322 6.90205 3.2499Z" fill="#EEECDE"/>
</svg>
