<svg width="44" height="44" viewBox="0 0 45 44" fill="none" xmlns="http://www.w3.org/2000/svg">
<path d="M26.3785 30.1813C21.2223 29.4938 21.291 27.6375 21.291 26.675V25.0938C23.1473 23.4437 24.041 20.6938 24.041 17.6V12.7875C24.041 7.5625 20.5348 5.5 17.166 5.5C13.7973 5.5 10.291 7.5625 10.291 12.7875V17.6C10.291 20.6938 11.2535 23.375 13.1098 25.025V26.675C13.1098 27.7062 13.1098 29.425 8.02227 30.1813C2.93477 30.9375 2.04102 35.75 2.04102 35.75V38.5H32.291V35.75C32.291 35.75 32.291 31.075 26.3785 30.1813Z" fill="#EEECDE"/>
<path d="M38.4098 25.7125C34.216 24.8875 34.216 23.65 34.216 22.825V21.5187C35.0468 20.7353 35.7028 19.7853 36.1411 18.7309C36.5795 17.6765 36.7903 16.5415 36.7598 15.4V11.4125C36.7598 7.14998 33.666 5.49998 30.916 5.49998C29.4659 5.47123 28.0527 5.95853 26.9285 6.87498C26.539 7.2971 26.1934 7.75781 25.8973 8.24998C26.4999 9.6862 26.804 11.23 26.791 12.7875V17.6C26.791 18.0125 26.791 18.425 26.7223 18.7687L27.5473 21.45V22.7562C27.5473 23.4437 27.5473 24.3375 25.416 25.0937L24.6598 25.3L24.041 26.1937V26.675C24.8864 27.0628 25.7946 27.2957 26.7223 27.3625C31.2598 27.9812 33.5285 30.525 34.4223 32.8625H43.291V30.25C43.291 30.25 43.291 26.6062 38.4098 25.7125Z" fill="#EEECDE"/>
</svg>
