<svg width="32" height="32" viewBox="0 0 32 32" fill="none" xmlns="http://www.w3.org/2000/svg">
<path d="M29.3307 4.62741V27.3725C29.3307 27.8925 29.1241 28.3913 28.7564 28.759C28.3887 29.1267 27.89 29.3333 27.3699 29.3333H4.62485C4.10481 29.3333 3.60608 29.1267 3.23836 28.759C2.87064 28.3913 2.66406 27.8925 2.66406 27.3725V4.62741C2.66406 4.10738 2.87064 3.60864 3.23836 3.24093C3.60608 2.87321 4.10481 2.66663 4.62485 2.66663L27.3699 2.66663C27.89 2.66663 28.3887 2.87321 28.7564 3.24093C29.1241 3.60864 29.3307 4.10738 29.3307 4.62741ZM10.5072 12.8627H6.58563V25.4117H10.5072V12.8627ZM10.8601 8.54898C10.8622 8.25234 10.8058 7.95821 10.6942 7.68336C10.5826 7.40852 10.418 7.15835 10.2097 6.94714C10.0014 6.73593 9.7535 6.56782 9.48023 6.4524C9.20696 6.33698 8.91364 6.27652 8.617 6.27447H8.54642C7.94318 6.27447 7.36465 6.5141 6.93809 6.94066C6.51154 7.36721 6.27191 7.94574 6.27191 8.54898C6.27191 9.15222 6.51154 9.73075 6.93809 10.1573C7.36465 10.5839 7.94318 10.8235 8.54642 10.8235C8.84307 10.8308 9.13826 10.7796 9.41511 10.6727C9.69196 10.5659 9.94505 10.4056 10.1599 10.2009C10.3748 9.99625 10.5472 9.75124 10.6674 9.47991C10.7875 9.20858 10.853 8.91623 10.8601 8.61957V8.54898ZM25.4092 17.7882C25.4092 14.0156 23.0092 12.549 20.6248 12.549C19.8442 12.5099 19.0669 12.6762 18.3705 13.0312C17.6742 13.3863 17.0831 13.9177 16.6562 14.5725H16.5464V12.8627H12.8601V25.4117H16.7817V18.7372C16.725 18.0536 16.9403 17.3753 17.3809 16.8495C17.8215 16.3238 18.4517 15.9931 19.1347 15.9294H19.2837C20.5307 15.9294 21.4562 16.7137 21.4562 18.6902V25.4117H25.3778L25.4092 17.7882Z" fill="#16363D"/>
</svg>
