<svg width="52" height="60" viewBox="0 0 52 60" fill="none" xmlns="http://www.w3.org/2000/svg">
<path d="M0.724301 22.6323C0.724301 22.6323 -0.447364 1.64621 23.2915 0C23.2915 0 24.9513 20.5995 0.724301 22.6323Z" fill="#EEECDE"/>
<path d="M23.3071 47.6809C23.3071 47.6809 24.4788 26.6948 0.739927 25.0486C0.739927 25.0486 -0.919934 45.6481 23.3071 47.6809Z" fill="#EEECDE"/>
<path d="M51.2758 25.0486C51.2758 25.0486 52.4475 46.0347 28.7087 47.6809C28.7087 47.6809 27.0488 27.0814 51.2758 25.0486Z" fill="#EEECDE"/>
<path d="M28.6931 0C28.6931 0 27.5214 20.9861 51.2602 22.6323C51.2602 22.6323 52.9201 2.03282 28.6931 0Z" fill="#EEECDE"/>
<path d="M26.4795 13.0075H25.6543V57.6298H26.4795V13.0075Z" fill="#EEECDE"/>
<path d="M26.4766 44.273L25.6514 44.2481C26.1616 28.3004 32.9207 23.393 33.2074 23.1903L33.6829 23.8575C33.6168 23.9043 26.9711 28.7774 26.4734 44.2761L26.4766 44.273Z" fill="#EEECDE"/>
<path d="M25.6412 44.273C25.1435 28.7743 18.4978 23.9012 18.4316 23.8544L18.9072 23.1872C19.1939 23.3867 25.953 28.2942 26.4632 44.245L25.638 44.2699L25.6412 44.273Z" fill="#EEECDE"/>
<path d="M35.3801 21.3539H32.4824V24.2223H35.3801V21.3539Z" fill="#EEECDE"/>
<path d="M27.5783 57.131H24.6807V59.9994H27.5783V57.131Z" fill="#EEECDE"/>
<path d="M19.5188 21.3539H16.6211V24.2223H19.5188V21.3539Z" fill="#EEECDE"/>
<path d="M27.5783 11.3176H24.6807V14.186H27.5783V11.3176Z" fill="#EEECDE"/>
</svg>
