<svg width="44" height="44" viewBox="0 0 44 44" fill="none" xmlns="http://www.w3.org/2000/svg">
<g clip-path="url(#clip0_82_45732)">
<path d="M40.1406 39.5H38.7969V14.5H33.4219V39.5H29.3906V20.75H24.0156V39.5H19.9844V27H14.6094V39.5H10.5781V33.25H5.20312V39.5H3.85938C3.50299 39.5 3.1612 39.6317 2.9092 39.8661C2.6572 40.1005 2.51563 40.4185 2.51562 40.75C2.51563 41.0815 2.6572 41.3995 2.9092 41.6339C3.1612 41.8683 3.50299 42 3.85938 42H40.1406C40.497 42 40.8388 41.8683 41.0908 41.6339C41.3428 41.3995 41.4844 41.0815 41.4844 40.75C41.4844 40.4185 41.3428 40.1005 41.0908 39.8661C40.8388 39.6317 40.497 39.5 40.1406 39.5Z" fill="#EEECDE"/>
<path d="M5.875 29.5001C6.16575 29.5001 6.44865 29.4124 6.68125 29.2501L36.5125 7.3126L36.1766 10.6251C36.158 10.7894 36.1746 10.9555 36.2255 11.1138C36.2764 11.2721 36.3605 11.4194 36.473 11.5472C36.5854 11.6751 36.724 11.781 36.8807 11.8587C37.0374 11.9364 37.2091 11.9845 37.3859 12.0001H37.5203C37.8546 12.0017 38.1775 11.8873 38.426 11.6792C38.6744 11.4712 38.8306 11.1845 38.8641 10.8751L39.6031 3.5001L31.675 2.0001C31.3186 1.9338 30.9485 2.00191 30.6461 2.18944C30.3437 2.37698 30.1338 2.66858 30.0625 3.0001C29.9912 3.33162 30.0644 3.6759 30.266 3.95721C30.4676 4.23851 30.7811 4.4338 31.1375 4.5001L35.0344 5.2501L5.06875 27.2501C4.84313 27.4075 4.67646 27.627 4.59237 27.8774C4.50828 28.1278 4.51102 28.3965 4.60021 28.6454C4.68939 28.8943 4.8605 29.1108 5.0893 29.2642C5.31809 29.4176 5.59297 29.5001 5.875 29.5001Z" fill="#EEECDE"/>
</g>
<defs>
<clipPath id="clip0_82_45732">
<rect width="43" height="40" fill="white" transform="translate(0.5 2)"/>
</clipPath>
</defs>
</svg>
