<svg width="44" height="44" viewBox="0 0 45 44" fill="none" xmlns="http://www.w3.org/2000/svg">
<path d="M43.3557 19.2111L39.1898 10.5073C39.0363 10.1869 38.824 9.90128 38.5648 9.66665C38.3056 9.43202 38.0047 9.253 37.6792 9.13982C37.3538 9.02665 37.0101 8.98152 36.668 9.00703C36.3258 9.03254 35.9918 9.12818 35.6851 9.28848L31.6253 11.4073L23.0733 9.04472C22.8538 8.98509 22.6234 8.98509 22.404 9.04472L13.8519 11.4073L9.79219 9.28848C9.48544 9.12818 9.15145 9.03254 8.80929 9.00703C8.46714 8.98152 8.12353 9.02665 7.79808 9.13982C7.47262 9.253 7.17171 9.43202 6.91252 9.66665C6.65332 9.90128 6.44093 10.1869 6.28746 10.5073L2.12162 19.2094C1.9681 19.5297 1.87652 19.8785 1.85209 20.2358C1.82766 20.5931 1.87088 20.9519 1.97926 21.2917C2.08764 21.6316 2.25907 21.9458 2.48376 22.2165C2.70845 22.4871 2.98199 22.7089 3.28877 22.8692L7.69621 25.1721L16.7543 31.9275C16.8878 32.0267 17.0378 32.099 17.1967 32.1406L27.644 34.868C27.8627 34.9253 28.092 34.9224 28.3094 34.8597C28.5268 34.797 28.725 34.6765 28.8846 34.51L35.4141 27.6916L37.8757 25.121L42.1885 22.8692C42.8077 22.5455 43.2784 21.9784 43.4973 21.2924C43.7161 20.6065 43.6652 19.8578 43.3557 19.2111ZM34.3955 24.8994L28.7785 20.2015C28.5268 19.991 28.2095 19.8852 27.8877 19.9044C27.5658 19.9236 27.2621 20.0664 27.0351 20.3054C24.1278 23.3635 20.8875 22.9766 18.8209 21.6129L25.8793 14.4535H31.072L35.5137 23.7283L34.3955 24.8994ZM27.5607 32.0349L18.0733 29.5581L10.0419 23.5681L14.6126 14.0222L22.7386 11.7738L24.3384 12.2153L16.9926 19.6611L16.9796 19.6764C16.7031 19.9652 16.4922 20.3151 16.3625 20.7003C16.2328 21.0856 16.1875 21.4963 16.2302 21.9022C16.2728 22.3082 16.4021 22.6989 16.6087 23.0456C16.8153 23.3924 17.0937 23.6863 17.4236 23.9056C20.7798 26.1438 24.8297 25.7807 28.0194 23.0533L32.5329 26.8392L27.5607 32.0349ZM23.3622 37.967C23.2917 38.2617 23.1289 38.5234 22.8997 38.7106C22.6705 38.8977 22.388 38.9996 22.0971 39C21.9898 38.9998 21.8829 38.9861 21.7788 38.9591L14.9701 37.1812C14.811 37.1402 14.6609 37.0679 14.5277 36.9681L10.2264 33.76C9.96193 33.5432 9.78775 33.2281 9.74013 32.8805C9.69251 32.5329 9.77512 32.1796 9.97077 31.894C10.1664 31.6084 10.46 31.4126 10.7904 31.3474C11.1208 31.2822 11.4626 31.3526 11.7445 31.544L15.8434 34.6021L22.4122 36.3135C22.7481 36.4013 23.0369 36.6248 23.2151 36.9348C23.3932 37.2449 23.4461 37.6162 23.3622 37.967Z" fill="#EEECDE"/>
</svg>
