<svg width="44" height="44" viewBox="0 0 45 44" fill="none" xmlns="http://www.w3.org/2000/svg">
<g clip-path="url(#clip0_82_45732)">
<path d="M36.9986 7.8574C34.2016 5.06028 30.6379 3.15539 26.7583 2.38362C22.8786 1.61186 18.8573 2.00788 15.2027 3.52162C11.5481 5.03535 8.42452 7.5988 6.22686 10.8878C4.0292 14.1768 2.8562 18.0436 2.8562 21.9993C2.8562 25.9549 4.0292 29.8218 6.22686 33.1108C8.42452 36.3998 11.5481 38.9632 15.2027 40.4769C18.8573 41.9907 22.8786 42.3867 26.7583 41.6149C30.6379 40.8432 34.2016 38.9383 36.9986 36.1412C40.7492 32.3904 42.8562 27.3035 42.8562 21.9993C42.8562 16.6951 40.7492 11.6081 36.9986 7.8574ZM32.4636 18.5349L21.6011 29.3974L15.0967 22.893C14.9773 22.7777 14.8821 22.6398 14.8166 22.4873C14.7511 22.3348 14.7166 22.1708 14.7152 22.0048C14.7137 21.8388 14.7453 21.6742 14.8082 21.5206C14.871 21.367 14.9639 21.2274 15.0812 21.11C15.1986 20.9927 15.3382 20.8999 15.4918 20.837C15.6454 20.7741 15.81 20.7425 15.976 20.744C16.1419 20.7454 16.306 20.7799 16.4585 20.8454C16.611 20.9109 16.7489 21.0061 16.8642 21.1255L21.6005 25.8618L30.6961 16.768C30.9324 16.5435 31.2471 16.4201 31.573 16.4242C31.899 16.4283 32.2104 16.5596 32.4409 16.7901C32.6715 17.0205 32.8029 17.3319 32.8071 17.6579C32.8113 17.9838 32.6881 18.2985 32.4636 18.5349Z" fill="#EEECDE"/>
</g>
<defs>
<clipPath id="clip0_82_45732">
<rect width="40" height="40" fill="white" transform="translate(2.85742 2)"/>
</clipPath>
</defs>
</svg>
