<svg width="44" height="44" viewBox="0 0 45 44" fill="none" xmlns="http://www.w3.org/2000/svg">
<path d="M41.0625 35.0625H39.6875V6.1875H34.1875V35.0625H30.0625V19.9375H24.5625V35.0625H20.4375V14.4375H14.9375V35.0625H10.8125V28.1875H5.3125V35.0625H3.9375C3.57283 35.0625 3.22309 35.2074 2.96523 35.4652C2.70737 35.7231 2.5625 36.0728 2.5625 36.4375C2.5625 36.8022 2.70737 37.1519 2.96523 37.4098C3.22309 37.6676 3.57283 37.8125 3.9375 37.8125H41.0625C41.4272 37.8125 41.7769 37.6676 42.0348 37.4098C42.2926 37.1519 42.4375 36.8022 42.4375 36.4375C42.4375 36.0728 42.2926 35.7231 42.0348 35.4652C41.7769 35.2074 41.4272 35.0625 41.0625 35.0625Z" fill="#EEECDE"/>
</svg>
