<svg width="44" height="44" viewBox="0 0 45 44" fill="none" xmlns="http://www.w3.org/2000/svg">
<g clip-path="url(#clip0_82_45732)">
<path d="M22.8574 2C18.9018 2 15.035 3.17298 11.746 5.37061C8.45704 7.56824 5.89359 10.6918 4.37984 14.3463C2.86609 18.0009 2.47002 22.0222 3.24173 25.9018C4.01343 29.7814 5.91825 33.3451 8.7153 36.1421C11.5123 38.9392 15.076 40.844 18.9556 41.6157C22.8352 42.3874 26.8566 41.9913 30.5111 40.4776C34.1656 38.9638 37.2892 36.4004 39.4868 33.1114C41.6845 29.8224 42.8574 25.9556 42.8574 22C42.8574 16.6957 40.7503 11.6086 36.9996 7.85786C33.2488 4.10714 28.1618 2 22.8574 2ZM39.2949 22C39.2949 25.2139 38.3419 28.3557 36.5563 31.028C34.7707 33.7003 32.2328 35.7831 29.2635 37.013C26.2942 38.243 23.0269 38.5648 19.8747 37.9378C16.7225 37.3108 13.827 35.7631 11.5544 33.4905C9.28184 31.2179 7.73418 28.3224 7.10717 25.1702C6.48016 22.018 6.80196 18.7507 8.03189 15.7814C9.26181 12.8121 11.3446 10.2742 14.0169 8.48862C16.6892 6.70305 19.831 5.75 23.0449 5.75C27.3547 5.75 31.488 7.46205 34.5354 10.5095C37.5829 13.557 39.2949 17.6902 39.2949 22Z" fill="#EEECDE"/>
<path d="M22.8574 9.1875C20.3234 9.1875 17.8462 9.93894 15.7392 11.3468C13.6322 12.7547 11.99 14.7557 11.0202 17.0969C10.0505 19.438 9.79674 22.0142 10.2911 24.4996C10.7855 26.985 12.0058 29.2679 13.7976 31.0598C15.5895 32.8517 17.8725 34.0719 20.3578 34.5663C22.8432 35.0607 25.4194 34.807 27.7606 33.8372C30.1017 32.8675 32.1028 31.2252 33.5106 29.1182C34.9185 27.0112 35.6699 24.5341 35.6699 22C35.6699 18.6019 34.32 15.343 31.9172 12.9402C29.5144 10.5374 26.2555 9.1875 22.8574 9.1875ZM22.8574 30.4375C21.1886 30.4375 19.5573 29.9426 18.1698 29.0155C16.7823 28.0884 15.7008 26.7706 15.0622 25.2289C14.4236 23.6871 14.2565 21.9906 14.5821 20.3539C14.9076 18.7172 15.7112 17.2138 16.8912 16.0338C18.0712 14.8538 19.5746 14.0502 21.2114 13.7246C22.8481 13.3991 24.5446 13.5662 26.0863 14.2048C27.6281 14.8434 28.9458 15.9248 29.873 17.3124C30.8001 18.6999 31.2949 20.3312 31.2949 22C31.2949 24.2378 30.406 26.3839 28.8236 27.9662C27.2413 29.5486 25.0952 30.4375 22.8574 30.4375Z" fill="#EEECDE"/>
<path d="M22.8574 27C25.6188 27 27.8574 24.7614 27.8574 22C27.8574 19.2386 25.6188 17 22.8574 17C20.096 17 17.8574 19.2386 17.8574 22C17.8574 24.7614 20.096 27 22.8574 27Z" fill="#EEECDE"/>
</g>
<defs>
<clipPath id="clip0_82_45732">
<rect width="40" height="40" fill="white" transform="translate(2.85742 2)"/>
</clipPath>
</defs>
</svg>
