<svg width="44" height="44" viewBox="0 0 44 44" fill="none" xmlns="http://www.w3.org/2000/svg">
<path d="M26.1937 35.2C20.6937 34.4438 20.6938 32.45 20.6938 31.35V30.7313C22.0943 29.4343 23.0959 27.7649 23.5812 25.9188C25.2312 25.9188 25.6437 22.4125 25.6437 21.9313C25.6437 21.45 25.5063 19.4563 24.75 19.25C27.5 9.62503 19.25 5.50003 12.1 10.45C9.075 10.45 8.1125 14.85 9.2125 19.25C8.45625 19.25 8.31875 21.3125 8.31875 21.8625C8.31875 22.4125 8.73125 25.85 10.3813 25.85C10.9313 27.8438 12.4438 29.4938 13.75 30.6625V31.35C13.75 32.45 13.3375 34.5125 7.76875 35.2C2.2 35.8875 1.375 41.25 1.375 41.25H31.625C31.625 41.25 31.6937 35.9563 26.1937 35.2Z" fill="#EEECDE"/>
<path d="M36.9203 30.2499C31.4203 29.1499 31.6266 26.9499 31.6266 25.8499V24.7499C34.5922 24.7192 37.5446 24.3501 40.4266 23.6499C38.1578 21.3811 36.0266 20.4186 36.0266 10.9311C36.0266 -0.27512 25.0266 3.23113 25.0266 3.23113C24.0488 3.18453 23.0753 3.38722 22.1974 3.82015C21.3195 4.25309 20.566 4.90207 20.0078 5.70613C22.4126 6.06578 24.5827 7.34812 26.0578 9.28113C27.9141 11.6874 28.4641 14.9874 27.7078 18.6311C28.16 19.6484 28.3942 20.7491 28.3953 21.8624C28.3953 23.2374 27.8453 26.6061 25.7141 27.9811C25.1963 29.3343 24.4524 30.5897 23.5141 31.6936C24.4398 32.1496 25.4423 32.4294 26.4703 32.5186C27.6466 32.613 28.7908 32.9486 29.8316 33.5045C30.8725 34.0604 31.7878 34.8248 32.5203 35.7499H42.6266C42.6266 35.7499 42.6266 31.4186 36.9203 30.2499Z" fill="#EEECDE"/>
</svg>
