<svg width="44" height="44" viewBox="0 0 45 44" fill="none" xmlns="http://www.w3.org/2000/svg">
<path d="M31.6074 12.3256C27.3299 12.3256 24.928 15.0131 22.9824 18.1019L20.9424 21.5744C18.6449 25.5431 17.1055 27.9375 14.1074 27.9375C10.3574 27.9375 7.85742 25.585 7.85742 22.315C7.84711 21.4913 8.0017 20.6738 8.31211 19.9107C8.62252 19.1476 9.08246 18.4544 9.66486 17.8717C10.2473 17.2891 10.9403 16.8289 11.7033 16.5182C12.4663 16.2074 13.2837 16.0525 14.1074 16.0625C15.3574 16.0625 17.178 16.8563 18.6612 18.7156L20.9424 21.5744L21.2343 21.0694C21.8012 20.0875 22.3693 19.0756 22.9824 18.1019L23.0043 18.0644L21.6555 16.3769C19.4737 13.6425 16.6074 12.3125 14.1074 12.3125V12.3256C11.4605 12.3371 8.92517 13.393 7.05258 15.2637C5.17999 17.1344 4.12156 19.6687 4.10742 22.3156C4.10742 27.6525 8.48242 31.6875 14.1074 31.6875C19.7324 31.6875 22.1193 27.0412 24.4837 22.9425C26.9468 18.67 28.4824 16.0756 31.6074 16.0756C35.3574 16.0756 37.8574 18.4194 37.8574 21.69C37.8676 22.5135 37.7128 23.3306 37.4023 24.0934C37.0918 24.8561 36.6318 25.549 36.0493 26.1312C35.4669 26.7134 34.7738 27.1731 34.011 27.4834C33.2481 27.7936 32.4309 27.948 31.6074 27.9375C30.3574 27.9375 28.4887 27.1375 27.0112 25.2962L25.0212 28.6213C25.863 29.5398 26.8785 30.2826 28.0089 30.8066C29.1393 31.3306 30.3624 31.6256 31.6074 31.6744V31.6875C34.2551 31.6744 36.7906 30.6169 38.6631 28.7449C40.5355 26.873 41.5936 24.3377 41.6074 21.69C41.6074 16.3519 37.2324 12.3256 31.6074 12.3256Z" fill="#EEECDE"/>
</svg>
