<svg width="44" height="44" viewBox="0 0 45 44" fill="none" xmlns="http://www.w3.org/2000/svg">
<g clip-path="url(#clip0_82_45732)">
<path d="M22.9199 30.6838C29.5143 19.4507 28.203 12.1463 22.9199 2.8907C22.9138 2.88034 22.905 2.87175 22.8946 2.86579C22.8841 2.85983 22.8723 2.85669 22.8602 2.85669C22.8482 2.85669 22.8363 2.85983 22.8259 2.86579C22.8154 2.87175 22.8067 2.88034 22.8005 2.8907C17.5168 12.1463 16.2062 19.4532 22.8005 30.6838C22.8069 30.6939 22.8157 30.7022 22.8262 30.7079C22.8366 30.7137 22.8483 30.7167 22.8602 30.7167C22.8721 30.7167 22.8839 30.7137 22.8943 30.7079C22.9047 30.7022 22.9135 30.6939 22.9199 30.6838Z" fill="#EEECDE"/>
<path d="M40.2168 17.5574C40.2199 17.5464 40.2202 17.5348 40.2177 17.5236C40.2152 17.5125 40.21 17.5021 40.2025 17.4935C40.195 17.4848 40.1854 17.4782 40.1747 17.4742C40.164 17.4702 40.1525 17.4689 40.1411 17.4705C36.5971 18.2319 33.3492 20.0032 30.79 22.5704C28.2308 25.1376 26.4696 28.391 25.7193 31.9374C25.717 31.9494 25.7179 31.9618 25.7219 31.9734C25.7258 31.985 25.7326 31.9953 25.7417 32.0035C25.7508 32.0116 25.7619 32.0173 25.7738 32.02C25.7858 32.0226 25.7982 32.0222 25.8099 32.0186C34.8699 29.0724 38.1699 25.3299 40.2168 17.5574ZM19.9199 32.0205C19.9316 32.024 19.944 32.0243 19.9559 32.0216C19.9678 32.0188 19.9788 32.0131 19.9879 32.0049C19.9969 31.9966 20.0037 31.9862 20.0075 31.9746C20.0114 31.963 20.0122 31.9506 20.0099 31.9386C19.2573 28.3904 17.4935 25.136 14.9315 22.5685C12.3695 20.001 9.11894 18.2301 5.57238 17.4699C5.56105 17.4683 5.54951 17.4696 5.5388 17.4736C5.52809 17.4776 5.51854 17.4842 5.51104 17.4928C5.50353 17.5015 5.49829 17.5118 5.49579 17.523C5.4933 17.5342 5.49363 17.5458 5.49676 17.5568C7.54488 25.3299 10.8574 29.0724 19.9199 32.0205Z" fill="#EEECDE"/>
<path d="M2.88499 34.7312C2.87531 34.7368 2.86714 34.7446 2.86118 34.7541C2.85522 34.7635 2.85165 34.7743 2.85079 34.7854C2.84993 34.7966 2.8518 34.8078 2.85623 34.818C2.86067 34.8283 2.86753 34.8373 2.87624 34.8443C6.05187 37.1493 12.9387 39.5943 20.2712 34.8262C20.2811 34.8193 20.2891 34.8101 20.2944 34.7993C20.2997 34.7884 20.3022 34.7765 20.3016 34.7644C20.3009 34.7524 20.2973 34.7408 20.2909 34.7306C20.2845 34.7204 20.2755 34.712 20.265 34.7062C12.9369 30.8193 8.88749 31.0693 2.88499 34.7312ZM42.8144 34.7306C35.49 30.8424 31.9019 31.0462 25.9044 34.7081C25.8947 34.7136 25.8865 34.7215 25.8806 34.731C25.8746 34.7404 25.871 34.7512 25.8702 34.7623C25.8693 34.7735 25.8712 34.7846 25.8756 34.7949C25.88 34.8052 25.8869 34.8142 25.8956 34.8212C29.0631 37.1274 35.4925 39.6199 42.82 34.8506C42.8299 34.8438 42.8379 34.8345 42.8433 34.8238C42.8487 34.813 42.8512 34.801 42.8506 34.789C42.8501 34.777 42.8464 34.7653 42.8401 34.7551C42.8337 34.7448 42.8249 34.7364 42.8144 34.7306Z" fill="#EEECDE"/>
<path d="M22.8574 32.625C22.5259 32.625 22.208 32.7567 21.9735 32.9911C21.7391 33.2255 21.6074 33.5435 21.6074 33.875V40.75C21.6074 41.0815 21.7391 41.3995 21.9735 41.6339C22.208 41.8683 22.5259 42 22.8574 42C23.1889 42 23.5069 41.8683 23.7413 41.6339C23.9757 41.3995 24.1074 41.0815 24.1074 40.75V33.875C24.1074 33.5435 23.9757 33.2255 23.7413 32.9911C23.5069 32.7567 23.1889 32.625 22.8574 32.625Z" fill="#EEECDE"/>
</g>
<defs>
<clipPath id="clip0_82_45732">
<rect width="40" height="40" fill="white" transform="translate(2.85742 2)"/>
</clipPath>
</defs>
</svg>
