<svg width="44" height="44" viewBox="0 0 45 44" fill="none" xmlns="http://www.w3.org/2000/svg">
<g clip-path="url(#clip0_82_45732)">
<path d="M40.8269 10.4441L36.643 13.0878C36.5031 13.1763 36.3388 13.2181 36.1736 13.2073C36.0085 13.1965 35.851 13.1336 35.7239 13.0276L33.9987 11.5899C33.878 11.4893 33.7903 11.3546 33.7473 11.2035L33.1994 9.28814C33.1512 9.1199 33.1608 8.94037 33.2267 8.77824C33.2926 8.6161 33.4109 8.48074 33.5628 8.39377L38.344 5.65608C37.261 4.74624 35.929 4.18363 34.5217 4.0415C33.1144 3.89938 31.6968 4.18434 30.4537 4.85927C29.2107 5.5342 28.1996 6.56782 27.5523 7.82551C26.905 9.08319 26.6514 10.5067 26.8246 11.9105C26.8761 12.2749 26.8434 12.6463 26.7289 12.9961C26.6144 13.3459 26.4212 13.6648 26.1642 13.9282L14.7837 25.3087C14.5227 25.565 14.2062 25.7579 13.8588 25.8725C13.5114 25.9871 13.1423 26.0203 12.7801 25.9696C12.4883 25.9322 12.1945 25.9134 11.9003 25.9134C10.8838 25.9064 9.8779 26.121 8.95276 26.5424C8.02762 26.9638 7.20543 27.5817 6.54344 28.3532C5.88145 29.1247 5.39556 30.0312 5.1196 31.0096C4.84365 31.988 4.78425 33.0148 4.94556 34.0185L9.69475 31.0158C9.83462 30.9274 9.99895 30.8855 10.1641 30.8963C10.3293 30.9072 10.4867 30.9701 10.6139 31.076L12.3391 32.5138C12.4598 32.6144 12.5474 32.7491 12.5905 32.9002L13.1384 34.8178C13.1865 34.986 13.1769 35.1655 13.1111 35.3277C13.0452 35.4898 12.9269 35.6252 12.775 35.7121L7.7125 38.6118C9.0462 39.6066 10.6905 40.0939 12.3509 39.9866C13.3147 39.9253 14.2555 39.6663 15.115 39.2259C15.9744 38.7854 16.7341 38.1728 17.3467 37.4263C17.9593 36.6797 18.4117 35.815 18.6758 34.8861C18.94 33.9572 19.0102 32.9839 18.8821 32.0266C18.8282 31.6656 18.8585 31.2969 18.9707 30.9495C19.0829 30.6022 19.274 30.2854 19.5289 30.0241L30.8689 18.6819C31.1303 18.4245 31.4477 18.2311 31.7963 18.1167C32.1448 18.0024 32.5151 17.9702 32.8782 18.0226C33.8731 18.1561 34.885 18.0754 35.8462 17.7859C36.8073 17.4963 37.6954 17.0046 38.451 16.3438C39.2066 15.683 39.8122 14.8682 40.2272 13.9542C40.6422 13.0402 40.857 12.0481 40.8573 11.0443C40.8573 10.8418 40.8438 10.6421 40.8269 10.4441Z" fill="#EEECDE"/>
<path d="M4.88772 10.4441L9.0716 13.0878C9.21148 13.1763 9.3758 13.2181 9.54096 13.2073C9.70611 13.1965 9.86358 13.1336 9.99072 13.0276L11.7159 11.5899C11.8366 11.4893 11.9243 11.3546 11.9673 11.2035L12.5152 9.28814C12.5634 9.1199 12.5538 8.94037 12.4879 8.77824C12.422 8.6161 12.3037 8.48074 12.1518 8.39377L7.3706 5.65608C8.45365 4.74624 9.78557 4.18363 11.1929 4.0415C12.6002 3.89938 14.0178 4.18434 15.2609 4.85927C16.5039 5.5342 17.515 6.56782 18.1623 7.82551C18.8096 9.08319 19.0632 10.5067 18.89 11.9105C18.8385 12.2749 18.8712 12.6463 18.9857 12.9961C19.1002 13.3459 19.2934 13.6648 19.5504 13.9282L30.9309 25.3087C31.1919 25.565 31.5084 25.7579 31.8558 25.8725C32.2032 25.9871 32.5723 26.0203 32.9345 25.9696C33.2263 25.9322 33.5201 25.9134 33.8143 25.9134C34.8308 25.9064 35.8367 26.121 36.7618 26.5424C37.687 26.9638 38.5092 27.5817 39.1712 28.3532C39.8332 29.1247 40.319 30.0312 40.595 31.0096C40.871 31.988 40.9303 33.0148 40.769 34.0185L36.0199 31.0158C35.88 30.9274 35.7156 30.8855 35.5505 30.8963C35.3853 30.9072 35.2279 30.9701 35.1007 31.076L33.3755 32.5138C33.2548 32.6144 33.1672 32.7491 33.1241 32.9002L32.5762 34.8178C32.5281 34.986 32.5377 35.1655 32.6035 35.3277C32.6694 35.4898 32.7877 35.6252 32.9396 35.7121L38.0021 38.6118C36.6684 39.6066 35.0241 40.0939 33.3637 39.9866C32.3999 39.9253 31.4591 39.6663 30.5996 39.2259C29.7402 38.7854 28.9805 38.1728 28.3679 37.4263C27.7553 36.6797 27.3029 35.815 27.0388 34.8861C26.7746 33.9572 26.7044 32.9839 26.8325 32.0266C26.8864 31.6656 26.8561 31.2969 26.7439 30.9495C26.6317 30.6022 26.4406 30.2854 26.1857 30.0241L14.8457 18.6819C14.5843 18.4245 14.2669 18.2311 13.9183 18.1167C13.5698 18.0024 13.1995 17.9702 12.8364 18.0226C11.8415 18.1561 10.8296 18.0754 9.86845 17.7859C8.90731 17.4963 8.01917 17.0046 7.26357 16.3438C6.50798 15.683 5.90238 14.8682 5.48738 13.9542C5.07238 13.0402 4.85757 12.0481 4.85735 11.0443C4.85735 10.8418 4.87085 10.6421 4.88772 10.4441Z" fill="#EEECDE"/>
</g>
<defs>
<clipPath id="clip0_82_45732">
<rect width="36" height="36" fill="white" transform="translate(4.85742 4)"/>
</clipPath>
</defs>
</svg>
