<svg width="32" height="32" viewBox="0 0 32 32" fill="none" xmlns="http://www.w3.org/2000/svg">
<path d="M32 6.96018C30.8232 7.46143 29.5591 7.80011 28.2301 7.9532C29.5858 7.17288 30.6259 5.93466 31.1164 4.46073C29.848 5.18415 28.4429 5.70978 26.9476 5.99156C25.7497 4.76689 24.0444 4.00012 22.1559 4.00012C18.5311 4.00012 15.5913 6.82607 15.5913 10.3131C15.5913 10.8062 15.6505 11.2858 15.7604 11.7491C10.3021 11.485 5.46675 8.97194 2.22813 5.15434C1.66441 6.0891 1.34026 7.17288 1.34026 8.3271C1.34026 10.5163 2.50013 12.4495 4.26037 13.5807C3.18365 13.5468 2.17176 13.2637 1.28671 12.7909V12.8722C1.28671 15.9298 3.54867 18.4807 6.55333 19.0605C6.00088 19.2041 5.42165 19.28 4.8241 19.28C4.4013 19.28 3.98837 19.2421 3.58813 19.1689C4.42385 21.6752 6.84788 23.5013 9.72148 23.5501C7.47362 25.2435 4.6423 26.2528 1.56716 26.2528C1.03726 26.2528 0.514401 26.2229 0 26.1647C2.90602 27.957 6.35603 29.0001 10.0625 29.0001C22.1404 29.0001 28.7431 19.3843 28.7431 11.0447C28.7431 10.7737 28.736 10.5001 28.7233 10.2291C30.0058 9.33772 31.1192 8.2282 31.9972 6.96425L32 6.96018Z" fill="#16363D"/>
</svg>
