<svg width="24" height="24" viewBox="0 0 24 24" fill="none" xmlns="http://www.w3.org/2000/svg">
<g clip-path="url(#clip0_297_5024)">
<path d="M11.3559 0.76094C9.49503 0.85268 7.68674 1.4087 6.09582 2.37831C4.50491 3.34792 3.18197 4.70029 2.24759 6.31216C1.31321 7.92402 0.797114 9.7441 0.746335 11.6065C0.695557 13.4689 1.11171 15.3144 1.95687 16.9748L0.772249 22.7251C0.757507 22.7965 0.761013 22.8706 0.782441 22.9403C0.80387 23.0101 0.84253 23.0733 0.894852 23.1242C0.947173 23.175 1.01147 23.2119 1.0818 23.2313C1.15213 23.2508 1.22623 23.2522 1.29725 23.2354L6.93275 21.9001C8.45994 22.6596 10.1409 23.0589 11.8465 23.0674C13.5521 23.0759 15.237 22.6934 16.7717 21.9492C18.3063 21.205 19.65 20.1189 20.6995 18.7743C21.749 17.4298 22.4763 15.8626 22.8256 14.1932C23.175 12.5237 23.137 10.7964 22.7146 9.14388C22.2922 7.49139 21.4967 5.95769 20.3891 4.66061C19.2815 3.36353 17.8914 2.33757 16.3254 1.66156C14.7595 0.985537 13.0595 0.677443 11.3559 0.76094Z" fill="#16363D"/>
<path d="M17.3195 14.327L15.1577 13.7063C15.0182 13.6664 14.8704 13.6648 14.7301 13.7018C14.5898 13.7389 14.4621 13.8131 14.3604 13.9167L13.8317 14.4552C13.7228 14.5666 13.5834 14.6433 13.431 14.6754C13.2786 14.7076 13.1201 14.6939 12.9755 14.636C11.9529 14.2235 9.80192 12.311 9.25292 11.3532C9.17578 11.2178 9.14052 11.0627 9.1516 10.9073C9.16268 10.7519 9.2196 10.6032 9.31517 10.4802L9.77642 9.8832C9.86521 9.76837 9.92132 9.63167 9.93881 9.48757C9.9563 9.34347 9.93453 9.19732 9.8758 9.06458L8.9668 7.0077C8.91609 6.89307 8.83934 6.79184 8.74264 6.71207C8.64595 6.6323 8.53198 6.57619 8.4098 6.54819C8.28762 6.52019 8.16059 6.52108 8.03881 6.55079C7.91703 6.5805 7.80386 6.63821 7.7083 6.71933C7.10492 7.2297 6.38942 8.00483 6.30242 8.86395C6.14905 10.3786 6.79855 12.2877 9.25442 14.5797C12.0917 17.2283 14.3642 17.5797 15.8435 17.2197C16.6828 17.0165 17.3533 16.202 17.7763 15.5348C17.8436 15.4291 17.8854 15.3091 17.8983 15.1844C17.9111 15.0597 17.8948 14.9338 17.8504 14.8165C17.8061 14.6992 17.735 14.5939 17.6429 14.509C17.5507 14.424 17.44 14.3617 17.3195 14.327Z" fill="#EEECDE"/>
</g>
<defs>
<clipPath id="clip0_297_5024">
<rect width="24" height="24" fill="white"/>
</clipPath>
</defs>
</svg>
