<svg width="32" height="32" viewBox="0 0 32 32" fill="none" xmlns="http://www.w3.org/2000/svg">
<path d="M15.1438 1.01455C12.6626 1.13687 10.2516 1.87822 8.13037 3.17104C6.00915 4.46386 4.24523 6.26702 2.99939 8.41617C1.75356 10.5653 1.06542 12.9921 0.997718 15.4753C0.930013 17.9585 1.48489 20.4192 2.61177 22.633L1.03227 30.3C1.01261 30.3953 1.01729 30.494 1.04586 30.587C1.07443 30.68 1.12598 30.7644 1.19574 30.8322C1.2655 30.9 1.35123 30.9491 1.445 30.9751C1.53878 31.001 1.63757 31.0029 1.73227 30.9805L9.24627 29.2C11.2825 30.2127 13.5238 30.7452 15.7979 30.7565C18.0721 30.7679 20.3185 30.2578 22.3648 29.2655C24.4111 28.2732 26.2027 26.8251 27.602 25.0324C29.0013 23.2397 29.971 21.1501 30.4368 18.9242C30.9025 16.6982 30.8519 14.3951 30.2887 12.1918C29.7255 9.98847 28.6648 7.94355 27.1881 6.21411C25.7113 4.48466 23.8578 3.11673 21.7698 2.21537C19.6819 1.31401 17.4152 0.903217 15.1438 1.01455Z" fill="#16363D"/>
<path d="M23.0927 19.1026L20.2102 18.2751C20.0242 18.2218 19.8272 18.2197 19.6401 18.2691C19.453 18.3184 19.2827 18.4174 19.1472 18.5556L18.4422 19.2736C18.2971 19.4221 18.1112 19.5243 17.908 19.5672C17.7048 19.6101 17.4935 19.5918 17.3007 19.5146C15.9372 18.9646 13.0692 16.4146 12.3372 15.1376C12.2344 14.9571 12.1874 14.7502 12.2021 14.543C12.2169 14.3358 12.2928 14.1376 12.4202 13.9736L13.0352 13.1776C13.1536 13.0244 13.2284 12.8422 13.2517 12.6501C13.2751 12.4579 13.246 12.2631 13.1677 12.0861L11.9557 9.34356C11.8881 9.19072 11.7858 9.05575 11.6569 8.94939C11.5279 8.84303 11.376 8.76821 11.2131 8.73088C11.0502 8.69355 10.8808 8.69474 10.7184 8.73435C10.556 8.77396 10.4051 8.8509 10.2777 8.95906C9.47323 9.63956 8.51923 10.6731 8.40323 11.8186C8.19873 13.8381 9.06473 16.3836 12.3392 19.4396C16.1222 22.9711 19.1522 23.4396 21.1247 22.9596C22.2437 22.6886 23.1377 21.6026 23.7017 20.7131C23.7915 20.5721 23.8472 20.4121 23.8644 20.2459C23.8815 20.0796 23.8597 19.9116 23.8006 19.7553C23.7414 19.599 23.6467 19.4586 23.5238 19.3453C23.4009 19.2319 23.2533 19.1488 23.0927 19.1026Z" fill="#EEECDE"/>
</svg>
